<?xml version="1.0" encoding="UTF-8"?>
<svg xmlns="http://www.w3.org/2000/svg" version="1.1" viewBox="0 0 800 800">
  <defs>
    <style>
      .cls-1 {
        fill: #fff;
      }
    </style>
  </defs>
  <!-- Generator: Adobe Illustrator 28.6.0, SVG Export Plug-In . SVG Version: 1.2.0 Build 709)  -->
  <g>
    <g id="Capa_1">
      <path class="cls-1" d="M455.6,739v-133.5c0-18.1,14.7-32.8,32.8-32.8,64.6,0,99.7-66.2,104.6-197h-104.6c-18.1,0-32.8-14.7-32.8-32.8V61.1c0-18.1,14.7-32.8,32.8-32.8h278.9c18.1,0,32.8,14.7,32.8,32.8v281.9c0,62.7-6.3,120.2-18.7,171-12.8,52.1-32.3,97.6-58.2,135.3-26.6,38.8-59.9,69.2-98.9,90.4-39.3,21.3-85,32.1-135.8,32.1-18.1,0-32.8-14.7-32.8-32.8ZM32.8,572.7c-18.1,0-32.8,14.7-32.8,32.8v133.5c0,18.1,14.7,32.8,32.8,32.8,50.8,0,96.5-10.8,135.8-32.1,39-21.2,72.3-51.6,98.9-90.4,25.9-37.7,45.5-83.3,58.2-135.4,12.4-50.8,18.7-108.3,18.7-171V61c0-18.1-14.7-32.8-32.8-32.8H32.8c-18.1,0-32.8,14.7-32.8,32.8v281.9c0,18.1,14.7,32.8,32.8,32.8h103.1c-4.8,130.8-39.4,197-103.1,197Z"/>
    </g>
  </g>
</svg>