<?xml version="1.0" encoding="UTF-8"?>
<svg id="Layer_1" data-name="Layer 1" xmlns="http://www.w3.org/2000/svg" version="1.1" viewBox="0 0 817.36 249.89">
  <defs>
    <style>
      .cls-1 {
        fill: #c65030;
      }

      .cls-1, .cls-2, .cls-3, .cls-4, .cls-5, .cls-6 {
        stroke-width: 0px;
      }

      .cls-2 {
        fill: #e56133;
      }

      .cls-3 {
        fill: #276041;
      }

      .cls-4 {
        fill: #af462e;
      }

      .cls-5 {
        fill: #f47856;
      }

      .cls-6 {
        fill: #32965d;
      }
    </style>
  </defs>
  <g>
    <polygon class="cls-3" points="95.39 242.72 9.26 191.43 9.26 156.59 95.39 207.88 95.39 242.72"/>
    <polygon class="cls-6" points="181.53 191.43 95.39 242.72 95.39 207.88 181.53 156.59 181.53 191.43"/>
    <polygon class="cls-4" points="95.37 55.85 9.24 107.14 9.24 141.99 95.37 90.69 95.37 55.85"/>
    <polygon class="cls-5" points="181.5 107.14 95.37 55.85 95.37 90.69 181.5 141.99 181.5 107.14"/>
    <polygon class="cls-1" points="95.39 193.36 9.26 142.07 9.26 107.23 95.39 158.52 95.39 193.36"/>
    <polygon class="cls-2" points="181.53 142.07 95.39 193.36 95.39 158.52 181.53 107.23 181.53 142.07"/>
    <rect class="cls-4" x="126.59" y="73.08" width="14.38" height="14.38"/>
    <rect class="cls-5" x="150.71" y="57.43" width="22.53" height="22.53"/>
    <rect class="cls-1" x="181.71" y="46.74" width="22.53" height="22.53"/>
    <rect class="cls-2" x="156.86" y="7.17" width="32.74" height="32.74"/>
    <rect class="cls-1" x="119.96" y="21.17" width="27.64" height="27.64"/>
  </g>
  <g>
    <path class="cls-6" d="M266.75,28.19h49.01c5.99,0,11.2.64,15.64,1.91,4.44,1.27,8.13,3.02,11.06,5.25,2.93,2.23,5.12,4.88,6.54,7.95,1.43,3.07,2.14,6.39,2.14,9.95,0,5.83-1.84,10.94-5.52,15.32,4.23,2.5,7.37,5.75,9.45,9.74s3.11,8.53,3.11,13.62c0,4.27-.71,8.12-2.14,11.56-1.43,3.44-3.6,6.39-6.51,8.83-2.92,2.45-6.59,4.32-11.03,5.63-4.44,1.31-9.67,1.97-15.7,1.97h-56.05V28.19ZM322.92,63.41c1.6,0,3.17.06,4.7.18,2.62-2.5,3.93-5.36,3.93-8.57s-1.3-5.9-3.9-7.72c-2.6-1.82-6.41-2.73-11.42-2.73h-30.87v18.84h37.56ZM323.27,103.73c5.01,0,8.81-1.08,11.42-3.23,2.6-2.15,3.9-5.18,3.9-9.1s-1.3-6.96-3.9-9.16c-2.6-2.19-6.41-3.29-11.42-3.29h-37.91v24.77h37.91Z"/>
    <path class="cls-6" d="M377.03,28.19h46.66c7.04,0,13.15.73,18.31,2.2,5.17,1.47,9.45,3.59,12.85,6.37,3.4,2.78,5.94,6.16,7.6,10.15,1.66,3.99,2.49,8.51,2.49,13.56,0,3.4-.41,6.64-1.23,9.71-.82,3.07-2.08,5.9-3.78,8.48-1.7,2.58-3.84,4.88-6.43,6.9-2.58,2.02-5.62,3.69-9.1,5.02l19.96,29.35h-22.77l-17.26-26.06h-.53l-28.17-.06v26.12h-18.61V28.19ZM424.16,77.73c3.52,0,6.6-.41,9.24-1.23,2.64-.82,4.85-1.98,6.63-3.46,1.78-1.49,3.11-3.3,3.99-5.43.88-2.13,1.32-4.51,1.32-7.13,0-5.13-1.76-9.09-5.28-11.88-3.52-2.8-8.82-4.2-15.9-4.2h-28.52v33.34h28.52Z"/>
    <path class="cls-6" d="M518.25,28.19h19.72l44.37,91.73h-19.54l-7.34-15.44h-53.59l-7.1,15.44h-19.6l43.08-91.73ZM548.12,89.17l-19.84-41.67-19.31,41.67h39.15Z"/>
    <path class="cls-6" d="M596.48,28.19h18.61l57.17,29.93v-29.93h18.61v91.73h-18.61v-42.08l-57.17-29.76v71.84h-18.61V28.19Z"/>
    <path class="cls-6" d="M716.8,28.19h33.63c9.82,0,18.35,1.06,25.59,3.17,7.24,2.11,13.23,5.14,17.99,9.07,4.75,3.93,8.29,8.71,10.62,14.32,2.33,5.62,3.49,11.92,3.49,18.93s-1.15,12.8-3.46,18.46c-2.31,5.65-5.83,10.55-10.56,14.67s-10.72,7.36-17.96,9.68c-7.24,2.33-15.77,3.49-25.59,3.49l-33.75-.06V28.19ZM755.01,103.85c5.56,0,10.43-.71,14.61-2.14,4.19-1.43,7.68-3.45,10.48-6.07,2.8-2.62,4.9-5.79,6.31-9.51,1.41-3.72,2.11-7.86,2.11-12.44s-.71-8.56-2.11-12.18c-1.41-3.62-3.51-6.69-6.31-9.21-2.8-2.52-6.29-4.47-10.48-5.84-4.19-1.37-9.06-2.05-14.61-2.05h-19.6v59.46h19.6Z"/>
    <path class="cls-6" d="M266.81,136.96h18.6l33.34,33.45,33.34-33.45h18.61v91.73h-18.61v-65.97l-33.34,32.1-33.34-32.1v65.97h-18.6v-91.73Z"/>
    <path class="cls-6" d="M428.1,136.96h19.72l44.37,91.73h-19.54l-7.34-15.44h-53.58l-7.1,15.44h-19.6l43.08-91.73ZM457.97,197.94l-19.84-41.67-19.31,41.67h39.15Z"/>
    <path class="cls-6" d="M529.28,153.27h-33.86v-16.32h86.34v16.32h-33.87v75.42h-18.61v-75.42Z"/>
    <path class="cls-6" d="M597.31,182.27c0-6.53,1.23-12.63,3.7-18.28,2.46-5.65,6.04-10.56,10.71-14.73s10.39-7.44,17.14-9.83c6.75-2.39,14.39-3.58,22.92-3.58,7.47,0,14.33.75,20.57,2.26s12.04,3.81,17.4,6.9l-8.57,14.09c-1.61-1.06-3.45-2-5.55-2.82-2.09-.82-4.32-1.52-6.69-2.08-2.37-.57-4.81-1.01-7.34-1.32-2.52-.31-5.02-.47-7.48-.47-5.95,0-11.25.73-15.9,2.2-4.66,1.47-8.58,3.52-11.77,6.16-3.19,2.64-5.62,5.79-7.28,9.45-1.66,3.66-2.49,7.68-2.49,12.06s.86,8.71,2.58,12.5c1.72,3.8,4.21,7.07,7.48,9.83,3.27,2.76,7.26,4.91,11.97,6.46,4.72,1.55,10.05,2.32,15.99,2.32,2.7,0,5.38-.2,8.04-.59,2.66-.39,5.23-.93,7.72-1.61s4.88-1.51,7.19-2.47c2.31-.96,4.46-2,6.46-3.14l8.57,14.09c-5.01,3.21-10.8,5.72-17.37,7.54-6.57,1.82-13.56,2.73-20.95,2.73-9.43,0-17.71-1.22-24.83-3.67-7.12-2.44-13.07-5.81-17.84-10.09-4.77-4.28-8.36-9.33-10.77-15.14s-3.61-12.06-3.61-18.75Z"/>
    <path class="cls-6" d="M710.9,136.96h18.61v23.95h57.05v-23.95h18.66v91.73h-18.66v-51.88h-57.05v51.88h-18.61v-91.73Z"/>
  </g>
</svg>