<svg xmlns="http://www.w3.org/2000/svg" xmlns:xlink="http://www.w3.org/1999/xlink" id="Layer_2" viewBox="0 0 68.59 63.89"><defs><linearGradient id="linear-gradient" x1="-759.88" x2="-758.88" y1="7709.68" y2="7709.68" gradientTransform="matrix(0 -59.06 -59.06 0 455368.61 -44806.24)" gradientUnits="userSpaceOnUse"><stop offset="0" stop-color="#fff"/><stop offset="0" stop-color="#fff"/><stop offset="1" stop-color="#a6a8ab"/></linearGradient><linearGradient xlink:href="#linear-gradient" id="linear-gradient-2" x1="-759.88" x2="-758.88" y1="7709.68" y2="7709.68" gradientTransform="matrix(0 -58.63 -58.63 0 452094.58 -44485.25)"/><linearGradient xlink:href="#linear-gradient" id="linear-gradient-3" x1="-759.88" x2="-758.88" y1="7709.73" y2="7709.73" gradientTransform="matrix(-155.54 0 0 155.54 -118117 -1199157.49)"/><linearGradient xlink:href="#linear-gradient" id="linear-gradient-4" x1="-759.88" x2="-758.88" y1="7709.73" y2="7709.73" gradientTransform="matrix(-149.07 0 0 149.07 -113205.44 -1149292.32)"/><linearGradient xlink:href="#linear-gradient" id="linear-gradient-5" x1="-759.88" x2="-758.88" y1="7709.73" y2="7709.73" gradientTransform="matrix(-155.54 0 0 155.54 -118082.31 -1199137.69)"/><linearGradient xlink:href="#linear-gradient" id="linear-gradient-6" x1="-759.88" x2="-758.88" y1="7709.73" y2="7709.73" gradientTransform="matrix(-152.36 0 0 152.36 -115677.9 -1174604.63)"/><clipPath id="clippath"><path d="m32.73 21.54-.26 14.28L66.17 20l-10.59-9.3z" class="cls-3"/></clipPath><clipPath id="clippath-1"><path d="m55.72 61.01 12.87-5.74V16.91L55.72 10.7z" class="cls-3"/></clipPath><clipPath id="clippath-2"><path d="m0 63.89 12.87-5.75V6.2L0 0z" class="cls-3"/></clipPath><clipPath id="clippath-3"><path d="m7.81 20.94-.27 14.29 32.18-15.54-12.39-7.76z" class="cls-3"/></clipPath><clipPath id="clippath-4"><path d="m20.74 46.64-.27 14.28 19.73-9.57-10.59-9.3z" class="cls-3"/></clipPath><clipPath id="clippath-5"><path d="m27.33 57.22 12.87-5.74V18.13l-12.87-6.2z" class="cls-3"/></clipPath><style>.cls-3{fill:none}</style></defs><g id="Layer_4"><g style="clip-path:url(#clippath)"><path d="M30.31 2.48h38.02v41.56H30.31z" style="fill:url(#linear-gradient)" transform="rotate(-61.95 49.321 23.26)"/></g><g style="clip-path:url(#clippath-1)"><path d="M36.92 18.35h50.45v35.01H36.92z" style="fill:url(#linear-gradient-2)" transform="rotate(-61.95 62.154 35.859)"/></g><g style="clip-path:url(#clippath-2)"><path d="M-25.88 15.55h64.62v32.8h-64.62z" style="fill:url(#linear-gradient-3)" transform="rotate(-71.18 6.434 31.946)"/></g><g style="clip-path:url(#clippath-3)"><path d="M7.41 4.59h32.44v37.98H7.41z" style="fill:url(#linear-gradient-4)" transform="rotate(-71.18 23.631 23.578)"/></g><g style="clip-path:url(#clippath-4)"><path d="M18.23 39.11h24.22v24.76H18.23z" style="fill:url(#linear-gradient-5)" transform="rotate(-71.18 30.337 51.483)"/></g><g style="clip-path:url(#clippath-5)"><path d="M10.26 21.18h47.03v26.8H10.26z" style="fill:url(#linear-gradient-6)" transform="rotate(-71.18 33.766 34.572)"/></g></g></svg>