<?xml version="1.0" encoding="UTF-8"?>
<svg id="Layer_2" xmlns="http://www.w3.org/2000/svg" xmlns:xlink="http://www.w3.org/1999/xlink" viewBox="0 0 400.23 63.89">
  <defs>
    <style>
      .cls-1 {
        clip-path: url(#clippath-4);
      }

      .cls-2 {
        fill: url(#linear-gradient-2);
      }

      .cls-3 {
        fill: #fff;
      }

      .cls-4 {
        fill: none;
      }

      .cls-5 {
        fill: url(#linear-gradient-4);
      }

      .cls-6 {
        fill: url(#linear-gradient-3);
      }

      .cls-7 {
        clip-path: url(#clippath-1);
      }

      .cls-8 {
        fill: url(#linear-gradient-5);
      }

      .cls-9 {
        clip-path: url(#clippath-5);
      }

      .cls-10 {
        clip-path: url(#clippath-3);
      }

      .cls-11 {
        fill: url(#linear-gradient-6);
      }

      .cls-12 {
        clip-path: url(#clippath-2);
      }

      .cls-13 {
        fill: url(#linear-gradient);
      }

      .cls-14 {
        clip-path: url(#clippath);
      }
    </style>
    <clipPath id="clippath">
      <polygon class="cls-4" points="32.73 21.54 32.47 35.82 66.17 20 55.58 10.7 32.73 21.54"/>
    </clipPath>
    <linearGradient id="linear-gradient" x1="-759.88" y1="7709.68" x2="-758.88" y2="7709.68" gradientTransform="translate(455368.61 -44806.24) rotate(-90) scale(59.06 -59.06)" gradientUnits="userSpaceOnUse">
      <stop offset="0" stop-color="#fff"/>
      <stop offset="0" stop-color="#fff"/>
      <stop offset="1" stop-color="#a6a8ab"/>
    </linearGradient>
    <clipPath id="clippath-1">
      <polygon class="cls-4" points="55.72 61.01 68.59 55.27 68.59 16.91 55.72 10.7 55.72 61.01"/>
    </clipPath>
    <linearGradient id="linear-gradient-2" x1="-759.88" y1="7709.68" x2="-758.88" y2="7709.68" gradientTransform="translate(452094.58 -44485.25) rotate(-90) scale(58.63 -58.63)" xlink:href="#linear-gradient"/>
    <clipPath id="clippath-2">
      <polygon class="cls-4" points="0 63.89 12.87 58.14 12.87 6.2 0 0 0 63.89"/>
    </clipPath>
    <linearGradient id="linear-gradient-3" x1="-759.88" y1="7709.73" x2="-758.88" y2="7709.73" gradientTransform="translate(-118117 -1199157.49) rotate(-180) scale(155.54 -155.54)" xlink:href="#linear-gradient"/>
    <clipPath id="clippath-3">
      <polygon class="cls-4" points="7.81 20.94 7.54 35.23 39.72 19.69 27.33 11.93 7.81 20.94"/>
    </clipPath>
    <linearGradient id="linear-gradient-4" x1="-759.88" y1="7709.73" x2="-758.88" y2="7709.73" gradientTransform="translate(-113205.44 -1149292.32) rotate(180) scale(149.07 -149.07)" xlink:href="#linear-gradient"/>
    <clipPath id="clippath-4">
      <polygon class="cls-4" points="20.74 46.64 20.47 60.92 40.2 51.35 29.61 42.05 20.74 46.64"/>
    </clipPath>
    <linearGradient id="linear-gradient-5" x1="-759.88" y1="7709.73" x2="-758.88" y2="7709.73" gradientTransform="translate(-118082.31 -1199137.69) rotate(-180) scale(155.54 -155.54)" xlink:href="#linear-gradient"/>
    <clipPath id="clippath-5">
      <polygon class="cls-4" points="27.33 57.22 40.2 51.48 40.2 18.13 27.33 11.93 27.33 57.22"/>
    </clipPath>
    <linearGradient id="linear-gradient-6" x1="-759.88" y1="7709.73" x2="-758.88" y2="7709.73" gradientTransform="translate(-115677.9 -1174604.63) rotate(-180) scale(152.36 -152.36)" xlink:href="#linear-gradient"/>
  </defs>
  <g id="Layer_4">
    <g class="cls-14">
      <rect class="cls-13" x="30.31" y="2.48" width="38.02" height="41.56" transform="translate(5.6 55.85) rotate(-61.95)"/>
    </g>
    <g class="cls-7">
      <rect class="cls-2" x="36.92" y="18.35" width="50.45" height="35.01" transform="translate(1.28 73.85) rotate(-61.95)"/>
    </g>
    <g class="cls-12">
      <rect class="cls-6" x="-25.88" y="15.55" width="64.62" height="32.8" transform="translate(-25.88 27.73) rotate(-71.18)"/>
    </g>
    <g class="cls-10">
      <rect class="cls-5" x="7.41" y="4.59" width="32.44" height="37.98" transform="translate(-6.31 38.34) rotate(-71.18)"/>
    </g>
    <g class="cls-1">
      <rect class="cls-8" x="18.23" y="39.11" width="24.22" height="24.76" transform="translate(-28.18 63.59) rotate(-71.18)"/>
    </g>
    <g class="cls-9">
      <rect class="cls-11" x="10.26" y="21.18" width="47.03" height="26.8" transform="translate(-9.85 55.38) rotate(-71.18)"/>
    </g>
    <path class="cls-3" d="M94.46,13.85h12.06c3.82,0,6.6.76,8.57,2.18,2.95,1.8,4.09,4.97,4.09,8.19,0,4.26-2.24,6.93-5.13,8.46,6.99,2.24,7.37,8.19,7.37,9.99-.05,3.98-1.8,7.37-4.91,9.22-2.84,1.97-5.24,2.35-10.2,2.35h-11.84V13.85ZM100.9,30.6h5.29c1.47,0,2.95-.11,4.09-.65,2.02-1.09,2.73-2.84,2.73-4.97,0-2.46-1.31-4.09-2.73-4.75-.98-.49-2.24-.71-4.26-.71h-5.13v11.08ZM100.9,48.55h6.49c1.31,0,2.95-.11,4.31-.65,1.97-.87,3.49-2.56,3.55-5.62,0-2.78-1.47-4.69-3.55-5.57-1.58-.66-2.89-.71-4.86-.71h-5.95v12.55Z"/>
    <path class="cls-3" d="M124.8,24.54h5.35v4.37c1.69-3.49,4.8-5.18,8.84-5.24v5.68h-.38c-5.35,0-8.13,2.95-8.13,8.84v16.04h-5.67v-29.69Z"/>
    <path class="cls-3" d="M171.18,54.23h-5.68v-5.18c-2.07,3.98-6.33,6.06-11.02,6.06-9.55,0-15.22-7.42-15.22-15.72,0-9.06,6.6-15.72,15.22-15.72,5.89,0,9.66,3.27,11.02,6.11v-5.24h5.68v29.69ZM144.93,39.49c.05,4.42,3.16,10.31,10.37,10.31,4.53,0,7.75-2.51,9.22-5.89.66-1.36.98-2.89,1.04-4.42.05-1.53-.22-3.06-.87-4.42-1.42-3.44-4.75-6.11-9.49-6.11-6.22,0-10.26,4.91-10.26,10.48v.05Z"/>
    <path class="cls-3" d="M176.47,24.54h5.35v4.58c1.42-3.05,4.75-5.51,10.04-5.46,9.5.11,12.01,6.98,12.01,13.15v17.41h-5.73v-16.1c0-5.35-2.07-9.17-7.86-9.11-5.57.05-8.13,3.55-8.13,8.68v16.53h-5.67v-29.69Z"/>
    <path class="cls-3" d="M237.96,54.23h-5.46v-5.18c-1.64,3.06-4.97,6.06-11.08,6.06-9.33,0-15.22-7.2-15.22-15.77,0-9.22,6.66-15.66,15.11-15.66,6.06,0,9.77,3.38,10.97,5.73v-15.55h5.68v40.38ZM211.88,39.38c.05,5.46,3.87,10.42,10.42,10.42,2.89,0,5.57-1.2,7.42-3.11,1.91-1.91,3-4.53,2.89-7.48,0-2.95-1.15-5.51-3-7.31-1.85-1.86-4.42-2.95-7.31-2.95-6.28,0-10.42,4.8-10.42,10.37v.05Z"/>
    <path class="cls-3" d="M241.13,24.54h5.35v4.2c1.26-2.51,4.69-5.08,9-5.08,2.73,0,5.57.82,7.64,3.17.76.76,1.58,2.35,1.91,2.89.49-.87,1.09-1.91,2.13-2.95,1.91-1.91,4.64-3.11,7.86-3.11,2.73,0,5.78.76,7.97,3,2.62,2.67,3.27,5.51,3.27,11.19v16.37h-5.68v-16.15c0-2.46-.33-4.91-1.64-6.6-1.04-1.53-2.62-2.46-5.29-2.46-2.51,0-4.64,1.04-5.73,2.84-1.2,1.86-1.36,3.49-1.36,6v16.37h-5.73v-16.37c.06-2.46-.22-4.26-1.2-5.89-1.09-1.75-2.84-2.89-5.62-2.95-2.67-.05-4.64,1.25-5.62,2.89-1.09,1.58-1.58,3.66-1.58,6.06v16.26h-5.67v-29.69Z"/>
    <path class="cls-3" d="M319.37,54.23h-5.68v-5.18c-2.07,3.98-6.33,6.06-11.02,6.06-9.55,0-15.23-7.42-15.23-15.72,0-9.06,6.6-15.72,15.23-15.72,5.89,0,9.66,3.27,11.02,6.11v-5.24h5.68v29.69ZM293.12,39.49c.05,4.42,3.16,10.31,10.37,10.31,4.53,0,7.75-2.51,9.22-5.89.66-1.36.98-2.89,1.04-4.42.05-1.53-.22-3.06-.87-4.42-1.42-3.44-4.75-6.11-9.49-6.11-6.22,0-10.26,4.91-10.26,10.48v.05Z"/>
    <polygon class="cls-3" points="326.79 28.96 321.44 28.96 321.44 24.54 326.79 24.54 326.79 13.85 332.46 13.85 332.46 24.54 338.19 24.54 338.19 28.96 332.46 28.96 332.46 54.23 326.79 54.23 326.79 28.96"/>
    <path class="cls-3" d="M369.51,43.8c-1.8,6.44-7.64,11.3-15.06,11.3-9.71,0-15.88-7.48-15.88-15.72,0-8.79,6.71-15.72,15.61-15.72,7.09,0,13.48,4.36,15.33,11.51h-5.84c-1.53-3.98-5.24-6.22-9.28-6.22-3-.05-5.18.93-7.26,2.89-1.74,1.75-2.89,4.53-2.89,7.53,0,6.11,4.47,10.42,10.15,10.42,4.97-.05,8.08-3.06,9.28-6h5.84Z"/>
    <path class="cls-3" d="M372.84,13.85h5.68v14.84c1.75-3.49,5.79-5.08,9.66-5.02,4.64,0,7.58,1.53,9.49,4.15,1.86,2.56,2.57,6.11,2.57,10.2v16.21h-5.73v-15.93c0-2.67-.49-5.02-1.69-6.66-1.31-1.64-3.27-2.62-6.22-2.62s-5.08,1.15-6.27,2.73c-1.26,1.58-1.8,3.71-1.8,5.73v16.75h-5.68V13.85Z"/>
  </g>
</svg>