<?xml version="1.0" encoding="UTF-8"?>
<svg xmlns="http://www.w3.org/2000/svg" version="1.1" xmlns:xlink="http://www.w3.org/1999/xlink" viewBox="0 0 400.2 63.9">
  <defs>
    <style>
      .cls-1 {
        clip-path: url(#clippath-4);
      }

      .cls-2 {
        fill: url(#linear-gradient-2);
      }

      .cls-3 {
        fill: none;
      }

      .cls-4 {
        fill: url(#linear-gradient-4);
      }

      .cls-5 {
        fill: url(#linear-gradient-3);
      }

      .cls-6 {
        clip-path: url(#clippath-1);
      }

      .cls-7 {
        fill: url(#linear-gradient-5);
      }

      .cls-8 {
        clip-path: url(#clippath-5);
      }

      .cls-9 {
        clip-path: url(#clippath-3);
      }

      .cls-10 {
        fill: #d12026;
      }

      .cls-11 {
        fill: url(#linear-gradient-6);
      }

      .cls-12 {
        clip-path: url(#clippath-2);
      }

      .cls-13 {
        fill: url(#linear-gradient);
      }

      .cls-14 {
        clip-path: url(#clippath);
      }
    </style>
    <clipPath id="clippath">
      <polygon class="cls-3" points="32.7 21.5 32.5 35.8 66.2 20 55.6 10.7 32.7 21.5"/>
    </clipPath>
    <linearGradient id="linear-gradient" x1="-1534.3" y1="-7138" x2="-1533.3" y2="-7138" gradientTransform="translate(421617.8 -90541) rotate(-90) scale(59.1)" gradientUnits="userSpaceOnUse">
      <stop offset="0" stop-color="#d12026"/>
      <stop offset="0" stop-color="#d12026"/>
      <stop offset="1" stop-color="#91030e"/>
    </linearGradient>
    <clipPath id="clippath-1">
      <polygon class="cls-3" points="55.7 61 68.6 55.3 68.6 16.9 55.7 10.7 55.7 61"/>
    </clipPath>
    <linearGradient id="linear-gradient-2" x1="-1534.4" y1="-7138.5" x2="-1533.4" y2="-7138.5" gradientTransform="translate(418590.1 -89893.7) rotate(-90) scale(58.6)" gradientUnits="userSpaceOnUse">
      <stop offset="0" stop-color="#d12026"/>
      <stop offset="0" stop-color="#d12026"/>
      <stop offset="1" stop-color="#91030e"/>
    </linearGradient>
    <clipPath id="clippath-2">
      <polygon class="cls-3" points="0 63.9 12.9 58.1 12.9 6.2 0 0 0 63.9"/>
    </clipPath>
    <linearGradient id="linear-gradient-3" x1="-1517.4" y1="-7142.5" x2="-1516.4" y2="-7142.5" gradientTransform="translate(-235936.8 -1110915.1) rotate(-180) scale(155.5)" gradientUnits="userSpaceOnUse">
      <stop offset="0" stop-color="#d12026"/>
      <stop offset="0" stop-color="#d12026"/>
      <stop offset="1" stop-color="#91030e"/>
    </linearGradient>
    <clipPath id="clippath-3">
      <polygon class="cls-3" points="7.8 20.9 7.5 35.2 39.7 19.7 27.3 11.9 7.8 20.9"/>
    </clipPath>
    <linearGradient id="linear-gradient-4" x1="-1517.3" y1="-7142.8" x2="-1516.3" y2="-7142.8" gradientTransform="translate(-226114.5 -1064757.2) rotate(-180) scale(149.1)" gradientUnits="userSpaceOnUse">
      <stop offset="0" stop-color="#d12026"/>
      <stop offset="0" stop-color="#d12026"/>
      <stop offset="1" stop-color="#91030e"/>
    </linearGradient>
    <clipPath id="clippath-4">
      <polygon class="cls-3" points="20.7 46.6 20.5 60.9 40.2 51.3 29.6 42.1 20.7 46.6"/>
    </clipPath>
    <linearGradient id="linear-gradient-5" x1="-1517.4" y1="-7142.5" x2="-1516.4" y2="-7142.5" gradientTransform="translate(-235902.1 -1110895.3) rotate(-180) scale(155.5)" gradientUnits="userSpaceOnUse">
      <stop offset="0" stop-color="#d12026"/>
      <stop offset="0" stop-color="#d12026"/>
      <stop offset="1" stop-color="#91030e"/>
    </linearGradient>
    <clipPath id="clippath-5">
      <polygon class="cls-3" points="27.3 57.2 40.2 51.5 40.2 18.1 27.3 11.9 27.3 57.2"/>
    </clipPath>
    <linearGradient id="linear-gradient-6" x1="-1517.3" y1="-7142.4" x2="-1516.3" y2="-7142.4" gradientTransform="translate(-231084.1 -1088184.3) rotate(-180) scale(152.4)" gradientUnits="userSpaceOnUse">
      <stop offset="0" stop-color="#d12026"/>
      <stop offset="0" stop-color="#d12026"/>
      <stop offset="1" stop-color="#91030e"/>
    </linearGradient>
  </defs>
  <!-- Generator: Adobe Illustrator 28.6.0, SVG Export Plug-In . SVG Version: 1.2.0 Build 709)  -->
  <g>
    <g id="Layer_2">
      <g id="Layer_4">
        <g class="cls-14">
          <rect class="cls-13" x="30.3" y="2.5" width="38" height="41.6" transform="translate(5.6 55.8) rotate(-62)"/>
        </g>
        <g class="cls-6">
          <rect class="cls-2" x="36.9" y="18.4" width="50.4" height="35" transform="translate(1.3 73.8) rotate(-62)"/>
        </g>
        <g class="cls-12">
          <rect class="cls-5" x="-25.9" y="15.6" width="64.6" height="32.8" transform="translate(-25.9 27.7) rotate(-71.2)"/>
        </g>
        <g class="cls-9">
          <rect class="cls-4" x="7.4" y="4.6" width="32.4" height="38" transform="translate(-6.3 38.3) rotate(-71.2)"/>
        </g>
        <g class="cls-1">
          <rect class="cls-7" x="18.2" y="39.1" width="24.2" height="24.8" transform="translate(-28.2 63.6) rotate(-71.2)"/>
        </g>
        <g class="cls-8">
          <rect class="cls-11" x="10.3" y="21.2" width="47" height="26.8" transform="translate(-9.8 55.4) rotate(-71.2)"/>
        </g>
        <path class="cls-10" d="M94.5,13.9h12.1c3.8,0,6.6.8,8.6,2.2,2.9,1.8,4.1,5,4.1,8.2s-2.2,6.9-5.1,8.5c7,2.2,7.4,8.2,7.4,10,0,4-1.8,7.4-4.9,9.2-2.8,2-5.2,2.3-10.2,2.3h-11.8V13.9h0ZM100.9,30.6h5.3c1.5,0,2.9-.1,4.1-.6,2-1.1,2.7-2.8,2.7-5s-1.3-4.1-2.7-4.8c-1-.5-2.2-.7-4.3-.7h-5.1v11.1h0ZM100.9,48.5h6.5c1.3,0,2.9-.1,4.3-.7,2-.9,3.5-2.6,3.6-5.6,0-2.8-1.5-4.7-3.6-5.6-1.6-.7-2.9-.7-4.9-.7h-5.9v12.5h0Z"/>
        <path class="cls-10" d="M124.8,24.5h5.4v4.4c1.7-3.5,4.8-5.2,8.8-5.2v5.7h-.4c-5.4,0-8.1,2.9-8.1,8.8v16h-5.7v-29.7h0Z"/>
        <path class="cls-10" d="M171.2,54.2h-5.7v-5.2c-2.1,4-6.3,6.1-11,6.1-9.6,0-15.2-7.4-15.2-15.7s6.6-15.7,15.2-15.7,9.7,3.3,11,6.1v-5.2h5.7v29.7ZM144.9,39.5c0,4.4,3.2,10.3,10.4,10.3s7.8-2.5,9.2-5.9c.7-1.4,1-2.9,1-4.4,0-1.5-.2-3.1-.9-4.4-1.4-3.4-4.8-6.1-9.5-6.1s-10.3,4.9-10.3,10.5h0s0,0,0,0Z"/>
        <path class="cls-10" d="M176.5,24.5h5.4v4.6c1.4-3,4.8-5.5,10-5.5,9.5.1,12,7,12,13.1v17.4h-5.7v-16.1c0-5.3-2.1-9.2-7.9-9.1-5.6,0-8.1,3.5-8.1,8.7v16.5h-5.7v-29.7h0Z"/>
        <path class="cls-10" d="M238,54.2h-5.5v-5.2c-1.6,3.1-5,6.1-11.1,6.1-9.3,0-15.2-7.2-15.2-15.8s6.7-15.7,15.1-15.7,9.8,3.4,11,5.7v-15.6h5.7v40.4h0ZM211.9,39.4c0,5.5,3.9,10.4,10.4,10.4s5.6-1.2,7.4-3.1c1.9-1.9,3-4.5,2.9-7.5,0-3-1.1-5.5-3-7.3-1.9-1.9-4.4-3-7.3-3-6.3,0-10.4,4.8-10.4,10.4h0Z"/>
        <path class="cls-10" d="M241.1,24.5h5.4v4.2c1.3-2.5,4.7-5.1,9-5.1s5.6.8,7.6,3.2c.8.8,1.6,2.4,1.9,2.9.5-.9,1.1-1.9,2.1-3,1.9-1.9,4.6-3.1,7.9-3.1s5.8.8,8,3c2.6,2.7,3.3,5.5,3.3,11.2v16.4h-5.7v-16.2c0-2.5-.3-4.9-1.6-6.6-1-1.5-2.6-2.5-5.3-2.5s-4.6,1-5.7,2.8c-1.2,1.9-1.4,3.5-1.4,6v16.4h-5.7v-16.4c0-2.5-.2-4.3-1.2-5.9-1.1-1.8-2.8-2.9-5.6-3-2.7,0-4.6,1.2-5.6,2.9-1.1,1.6-1.6,3.7-1.6,6.1v16.3h-5.7v-29.7h0Z"/>
        <path class="cls-10" d="M319.4,54.2h-5.7v-5.2c-2.1,4-6.3,6.1-11,6.1-9.5,0-15.2-7.4-15.2-15.7s6.6-15.7,15.2-15.7,9.7,3.3,11,6.1v-5.2h5.7v29.7ZM293.1,39.5c0,4.4,3.2,10.3,10.4,10.3s7.8-2.5,9.2-5.9c.7-1.4,1-2.9,1-4.4,0-1.5-.2-3.1-.9-4.4-1.4-3.4-4.8-6.1-9.5-6.1s-10.3,4.9-10.3,10.5h0s0,0,0,0Z"/>
        <polygon class="cls-10" points="326.8 29 321.4 29 321.4 24.5 326.8 24.5 326.8 13.9 332.5 13.9 332.5 24.5 338.2 24.5 338.2 29 332.5 29 332.5 54.2 326.8 54.2 326.8 29"/>
        <path class="cls-10" d="M369.5,43.8c-1.8,6.4-7.6,11.3-15.1,11.3s-15.9-7.5-15.9-15.7,6.7-15.7,15.6-15.7,13.5,4.4,15.3,11.5h-5.8c-1.5-4-5.2-6.2-9.3-6.2-3,0-5.2.9-7.3,2.9-1.7,1.7-2.9,4.5-2.9,7.5,0,6.1,4.5,10.4,10.1,10.4,5,0,8.1-3.1,9.3-6h5.8Z"/>
        <path class="cls-10" d="M372.8,13.9h5.7v14.8c1.8-3.5,5.8-5.1,9.7-5,4.6,0,7.6,1.5,9.5,4.1,1.9,2.6,2.6,6.1,2.6,10.2v16.2h-5.7v-15.9c0-2.7-.5-5-1.7-6.7-1.3-1.6-3.3-2.6-6.2-2.6s-5.1,1.1-6.3,2.7c-1.3,1.6-1.8,3.7-1.8,5.7v16.8h-5.7V13.9h0Z"/>
      </g>
    </g>
  </g>
</svg>