<svg xmlns="http://www.w3.org/2000/svg" viewBox="0 0 68.6 63.9"><defs><linearGradient id="linear-gradient" x1="-1702.7" x2="-1701.7" y1="-7136.6" y2="-7136.6" gradientTransform="rotate(-90 160524.1 -261015.6)scale(59.1)" gradientUnits="userSpaceOnUse"><stop offset="0" stop-color="#d12026"/><stop offset="0" stop-color="#d12026"/><stop offset="1" stop-color="#91030e"/></linearGradient><linearGradient id="linear-gradient-2" x1="-1702.9" x2="-1701.9" y1="-7137.1" y2="-7137.1" gradientTransform="matrix(0 -58.6 58.6 0 418512.1 -99772.7)" gradientUnits="userSpaceOnUse"><stop offset="0" stop-color="#d12026"/><stop offset="0" stop-color="#d12026"/><stop offset="1" stop-color="#91030e"/></linearGradient><linearGradient id="linear-gradient-3" x1="-1683.7" x2="-1682.7" y1="-7143.5" y2="-7143.5" gradientTransform="rotate(-180 -130905 -555536.1)scale(155.5)" gradientUnits="userSpaceOnUse"><stop offset="0" stop-color="#d12026"/><stop offset="0" stop-color="#d12026"/><stop offset="1" stop-color="#91030e"/></linearGradient><linearGradient id="linear-gradient-4" x1="-1683.7" x2="-1682.7" y1="-7143.9" y2="-7143.9" gradientTransform="rotate(-180 -125456.85 -532457.2)scale(149.1)" gradientUnits="userSpaceOnUse"><stop offset="0" stop-color="#d12026"/><stop offset="0" stop-color="#d12026"/><stop offset="1" stop-color="#91030e"/></linearGradient><linearGradient id="linear-gradient-5" x1="-1683.7" x2="-1682.7" y1="-7143.5" y2="-7143.5" gradientTransform="rotate(-180 -130887.65 -555526.2)scale(155.5)" gradientUnits="userSpaceOnUse"><stop offset="0" stop-color="#d12026"/><stop offset="0" stop-color="#d12026"/><stop offset="1" stop-color="#91030e"/></linearGradient><linearGradient id="linear-gradient-6" x1="-1683.7" x2="-1682.7" y1="-7143.4" y2="-7143.4" gradientTransform="rotate(-180 -128214.7 -544170.75)scale(152.4)" gradientUnits="userSpaceOnUse"><stop offset="0" stop-color="#d12026"/><stop offset="0" stop-color="#d12026"/><stop offset="1" stop-color="#91030e"/></linearGradient><clipPath id="clippath"><path d="m32.7 21.5-.2 14.3L66.2 20l-10.6-9.3z" class="cls-3"/></clipPath><clipPath id="clippath-1"><path d="m55.7 61 12.9-5.7V16.9l-12.9-6.2z" class="cls-3"/></clipPath><clipPath id="clippath-2"><path d="m0 63.9 12.9-5.8V6.2L0 0z" class="cls-3"/></clipPath><clipPath id="clippath-3"><path d="m7.8 20.9-.3 14.3 32.2-15.5-12.4-7.8z" class="cls-3"/></clipPath><clipPath id="clippath-4"><path d="m20.7 46.6-.2 14.3 19.7-9.6-10.6-9.2z" class="cls-3"/></clipPath><clipPath id="clippath-5"><path d="m27.3 57.2 12.9-5.7V18.1l-12.9-6.2z" class="cls-3"/></clipPath><style>.cls-3{fill:none}</style></defs><g id="Layer_2"><g id="Layer_4"><g style="clip-path:url(#clippath)"><path d="M30.3 2.5h38v41.6h-38z" style="fill:url(#linear-gradient)" transform="rotate(-62 49.233 23.24)"/></g><g style="clip-path:url(#clippath-1)"><path d="M36.9 18.4h50.4v35H36.9z" style="fill:url(#linear-gradient-2)" transform="rotate(-62 62.062 35.818)"/></g><g style="clip-path:url(#clippath-2)"><path d="M-25.9 15.6h64.6v32.8h-64.6z" style="fill:url(#linear-gradient-3)" transform="rotate(-71.2 6.395 31.938)"/></g><g style="clip-path:url(#clippath-3)"><path d="M7.4 4.6h32.4v38H7.4z" style="fill:url(#linear-gradient-4)" transform="rotate(-71.2 23.598 23.55)"/></g><g style="clip-path:url(#clippath-4)"><path d="M18.2 39.1h24.2v24.8H18.2z" style="fill:url(#linear-gradient-5)" transform="rotate(-71.2 30.318 51.495)"/></g><g style="clip-path:url(#clippath-5)"><path d="M10.3 21.2h47V48h-47z" style="fill:url(#linear-gradient-6)" transform="rotate(-71.2 33.791 34.544)"/></g></g></g></svg>