<svg xmlns="http://www.w3.org/2000/svg" xmlns:xlink="http://www.w3.org/1999/xlink" id="Layer_2" viewBox="0 0 400.23 63.89"><defs><linearGradient id="linear-gradient" x1="-759.88" x2="-758.88" y1="7709.68" y2="7709.68" gradientTransform="matrix(0 -59.06 -59.06 0 455368.61 -44806.24)" gradientUnits="userSpaceOnUse"><stop offset="0" stop-color="#fff"/><stop offset="0" stop-color="#fff"/><stop offset="1" stop-color="#a6a8ab"/></linearGradient><linearGradient xlink:href="#linear-gradient" id="linear-gradient-2" x1="-759.88" x2="-758.88" y1="7709.68" y2="7709.68" gradientTransform="matrix(0 -58.63 -58.63 0 452094.58 -44485.25)"/><linearGradient xlink:href="#linear-gradient" id="linear-gradient-3" x1="-759.88" x2="-758.88" y1="7709.73" y2="7709.73" gradientTransform="matrix(-155.54 0 0 155.54 -118117 -1199157.49)"/><linearGradient xlink:href="#linear-gradient" id="linear-gradient-4" x1="-759.88" x2="-758.88" y1="7709.73" y2="7709.73" gradientTransform="matrix(-149.07 0 0 149.07 -113205.44 -1149292.32)"/><linearGradient xlink:href="#linear-gradient" id="linear-gradient-5" x1="-759.88" x2="-758.88" y1="7709.73" y2="7709.73" gradientTransform="matrix(-155.54 0 0 155.54 -118082.31 -1199137.69)"/><linearGradient xlink:href="#linear-gradient" id="linear-gradient-6" x1="-759.88" x2="-758.88" y1="7709.73" y2="7709.73" gradientTransform="matrix(-152.36 0 0 152.36 -115677.9 -1174604.63)"/><clipPath id="clippath"><path d="m32.73 21.54-.26 14.28L66.17 20l-10.59-9.3z" class="cls-4"/></clipPath><clipPath id="clippath-1"><path d="m55.72 61.01 12.87-5.74V16.91L55.72 10.7z" class="cls-4"/></clipPath><clipPath id="clippath-2"><path d="m0 63.89 12.87-5.75V6.2L0 0z" class="cls-4"/></clipPath><clipPath id="clippath-3"><path d="m7.81 20.94-.27 14.29 32.18-15.54-12.39-7.76z" class="cls-4"/></clipPath><clipPath id="clippath-4"><path d="m20.74 46.64-.27 14.28 19.73-9.57-10.59-9.3z" class="cls-4"/></clipPath><clipPath id="clippath-5"><path d="m27.33 57.22 12.87-5.74V18.13l-12.87-6.2z" class="cls-4"/></clipPath><style>.cls-3{fill:#fff}.cls-4{fill:none}</style></defs><g id="Layer_4"><g style="clip-path:url(#clippath)"><path d="M30.31 2.48h38.02v41.56H30.31z" style="fill:url(#linear-gradient)" transform="rotate(-61.95 49.321 23.26)"/></g><g style="clip-path:url(#clippath-1)"><path d="M36.92 18.35h50.45v35.01H36.92z" style="fill:url(#linear-gradient-2)" transform="rotate(-61.95 62.154 35.859)"/></g><g style="clip-path:url(#clippath-2)"><path d="M-25.88 15.55h64.62v32.8h-64.62z" style="fill:url(#linear-gradient-3)" transform="rotate(-71.18 6.434 31.946)"/></g><g style="clip-path:url(#clippath-3)"><path d="M7.41 4.59h32.44v37.98H7.41z" style="fill:url(#linear-gradient-4)" transform="rotate(-71.18 23.631 23.578)"/></g><g style="clip-path:url(#clippath-4)"><path d="M18.23 39.11h24.22v24.76H18.23z" style="fill:url(#linear-gradient-5)" transform="rotate(-71.18 30.337 51.483)"/></g><g style="clip-path:url(#clippath-5)"><path d="M10.26 21.18h47.03v26.8H10.26z" style="fill:url(#linear-gradient-6)" transform="rotate(-71.18 33.766 34.572)"/></g><path d="M94.46 13.85h12.06c3.82 0 6.6.76 8.57 2.18 2.95 1.8 4.09 4.97 4.09 8.19 0 4.26-2.24 6.93-5.13 8.46 6.99 2.24 7.37 8.19 7.37 9.99-.05 3.98-1.8 7.37-4.91 9.22-2.84 1.97-5.24 2.35-10.2 2.35H94.47V13.85Zm6.44 16.75h5.29c1.47 0 2.95-.11 4.09-.65 2.02-1.09 2.73-2.84 2.73-4.97 0-2.46-1.31-4.09-2.73-4.75-.98-.49-2.24-.71-4.26-.71h-5.13V30.6Zm0 17.95h6.49c1.31 0 2.95-.11 4.31-.65 1.97-.87 3.49-2.56 3.55-5.62 0-2.78-1.47-4.69-3.55-5.57-1.58-.66-2.89-.71-4.86-.71h-5.95v12.55ZM124.8 24.54h5.35v4.37c1.69-3.49 4.8-5.18 8.84-5.24v5.68h-.38c-5.35 0-8.13 2.95-8.13 8.84v16.04h-5.67V24.54ZM171.18 54.23h-5.68v-5.18c-2.07 3.98-6.33 6.06-11.02 6.06-9.55 0-15.22-7.42-15.22-15.72 0-9.06 6.6-15.72 15.22-15.72 5.89 0 9.66 3.27 11.02 6.11v-5.24h5.68zm-26.25-14.74c.05 4.42 3.16 10.31 10.37 10.31 4.53 0 7.75-2.51 9.22-5.89.66-1.36.98-2.89 1.04-4.42.05-1.53-.22-3.06-.87-4.42-1.42-3.44-4.75-6.11-9.49-6.11-6.22 0-10.26 4.91-10.26 10.48v.05ZM176.47 24.54h5.35v4.58c1.42-3.05 4.75-5.51 10.04-5.46 9.5.11 12.01 6.98 12.01 13.15v17.41h-5.73v-16.1c0-5.35-2.07-9.17-7.86-9.11-5.57.05-8.13 3.55-8.13 8.68v16.53h-5.67V24.53ZM237.96 54.23h-5.46v-5.18c-1.64 3.06-4.97 6.06-11.08 6.06-9.33 0-15.22-7.2-15.22-15.77 0-9.22 6.66-15.66 15.11-15.66 6.06 0 9.77 3.38 10.97 5.73V13.86h5.68v40.38Zm-26.08-14.85c.05 5.46 3.87 10.42 10.42 10.42 2.89 0 5.57-1.2 7.42-3.11 1.91-1.91 3-4.53 2.89-7.48 0-2.95-1.15-5.51-3-7.31-1.85-1.86-4.42-2.95-7.31-2.95-6.28 0-10.42 4.8-10.42 10.37v.05ZM241.13 24.54h5.35v4.2c1.26-2.51 4.69-5.08 9-5.08 2.73 0 5.57.82 7.64 3.17.76.76 1.58 2.35 1.91 2.89.49-.87 1.09-1.91 2.13-2.95 1.91-1.91 4.64-3.11 7.86-3.11 2.73 0 5.78.76 7.97 3 2.62 2.67 3.27 5.51 3.27 11.19v16.37h-5.68V38.07c0-2.46-.33-4.91-1.64-6.6-1.04-1.53-2.62-2.46-5.29-2.46-2.51 0-4.64 1.04-5.73 2.84-1.2 1.86-1.36 3.49-1.36 6v16.37h-5.73V37.85c.06-2.46-.22-4.26-1.2-5.89-1.09-1.75-2.84-2.89-5.62-2.95-2.67-.05-4.64 1.25-5.62 2.89-1.09 1.58-1.58 3.66-1.58 6.06v16.26h-5.67V24.53ZM319.37 54.23h-5.68v-5.18c-2.07 3.98-6.33 6.06-11.02 6.06-9.55 0-15.23-7.42-15.23-15.72 0-9.06 6.6-15.72 15.23-15.72 5.89 0 9.66 3.27 11.02 6.11v-5.24h5.68zm-26.25-14.74c.05 4.42 3.16 10.31 10.37 10.31 4.53 0 7.75-2.51 9.22-5.89.66-1.36.98-2.89 1.04-4.42.05-1.53-.22-3.06-.87-4.42-1.42-3.44-4.75-6.11-9.49-6.11-6.22 0-10.26 4.91-10.26 10.48v.05ZM326.79 28.96h-5.35v-4.42h5.35V13.85h5.67v10.69h5.73v4.42h-5.73v25.27h-5.67zM369.51 43.8c-1.8 6.44-7.64 11.3-15.06 11.3-9.71 0-15.88-7.48-15.88-15.72 0-8.79 6.71-15.72 15.61-15.72 7.09 0 13.48 4.36 15.33 11.51h-5.84c-1.53-3.98-5.24-6.22-9.28-6.22-3-.05-5.18.93-7.26 2.89-1.74 1.75-2.89 4.53-2.89 7.53 0 6.11 4.47 10.42 10.15 10.42 4.97-.05 8.08-3.06 9.28-6h5.84ZM372.84 13.85h5.68v14.84c1.75-3.49 5.79-5.08 9.66-5.02 4.64 0 7.58 1.53 9.49 4.15 1.86 2.56 2.57 6.11 2.57 10.2v16.21h-5.73V38.3c0-2.67-.49-5.02-1.69-6.66-1.31-1.64-3.27-2.62-6.22-2.62s-5.08 1.15-6.27 2.73c-1.26 1.58-1.8 3.71-1.8 5.73v16.75h-5.68V13.85Z" class="cls-3"/></g></svg>