<svg xmlns="http://www.w3.org/2000/svg" viewBox="0 0 400.2 63.9"><defs><linearGradient id="linear-gradient" x1="-1534.3" x2="-1533.3" y1="-7138" y2="-7138" gradientTransform="matrix(0 -59.1 59.1 0 421617.8 -90541)" gradientUnits="userSpaceOnUse"><stop offset="0" stop-color="#d12026"/><stop offset="0" stop-color="#d12026"/><stop offset="1" stop-color="#91030e"/></linearGradient><linearGradient id="linear-gradient-2" x1="-1534.4" x2="-1533.4" y1="-7138.5" y2="-7138.5" gradientTransform="matrix(0 -58.6 58.6 0 418590.1 -89893.7)" gradientUnits="userSpaceOnUse"><stop offset="0" stop-color="#d12026"/><stop offset="0" stop-color="#d12026"/><stop offset="1" stop-color="#91030e"/></linearGradient><linearGradient id="linear-gradient-3" x1="-1517.4" x2="-1516.4" y1="-7142.5" y2="-7142.5" gradientTransform="rotate(-180 -117968.4 -555457.55)scale(155.5)" gradientUnits="userSpaceOnUse"><stop offset="0" stop-color="#d12026"/><stop offset="0" stop-color="#d12026"/><stop offset="1" stop-color="#91030e"/></linearGradient><linearGradient id="linear-gradient-4" x1="-1517.3" x2="-1516.3" y1="-7142.8" y2="-7142.8" gradientTransform="rotate(-180 -113057.25 -532378.6)scale(149.1)" gradientUnits="userSpaceOnUse"><stop offset="0" stop-color="#d12026"/><stop offset="0" stop-color="#d12026"/><stop offset="1" stop-color="#91030e"/></linearGradient><linearGradient id="linear-gradient-5" x1="-1517.4" x2="-1516.4" y1="-7142.5" y2="-7142.5" gradientTransform="rotate(-180 -117951.05 -555447.65)scale(155.5)" gradientUnits="userSpaceOnUse"><stop offset="0" stop-color="#d12026"/><stop offset="0" stop-color="#d12026"/><stop offset="1" stop-color="#91030e"/></linearGradient><linearGradient id="linear-gradient-6" x1="-1517.3" x2="-1516.3" y1="-7142.4" y2="-7142.4" gradientTransform="rotate(-180 -115542.05 -544092.15)scale(152.4)" gradientUnits="userSpaceOnUse"><stop offset="0" stop-color="#d12026"/><stop offset="0" stop-color="#d12026"/><stop offset="1" stop-color="#91030e"/></linearGradient><clipPath id="clippath"><path d="m32.7 21.5-.2 14.3L66.2 20l-10.6-9.3z" class="cls-3"/></clipPath><clipPath id="clippath-1"><path d="m55.7 61 12.9-5.7V16.9l-12.9-6.2z" class="cls-3"/></clipPath><clipPath id="clippath-2"><path d="m0 63.9 12.9-5.8V6.2L0 0z" class="cls-3"/></clipPath><clipPath id="clippath-3"><path d="m7.8 20.9-.3 14.3 32.2-15.5-12.4-7.8z" class="cls-3"/></clipPath><clipPath id="clippath-4"><path d="m20.7 46.6-.2 14.3 19.7-9.6-10.6-9.2z" class="cls-3"/></clipPath><clipPath id="clippath-5"><path d="m27.3 57.2 12.9-5.7V18.1l-12.9-6.2z" class="cls-3"/></clipPath><style>.cls-3{fill:none}.cls-10{fill:#d12026}</style></defs><g id="Layer_2"><g id="Layer_4"><g style="clip-path:url(#clippath)"><path d="M30.3 2.5h38v41.6h-38z" style="fill:url(#linear-gradient)" transform="rotate(-62 49.233 23.24)"/></g><g style="clip-path:url(#clippath-1)"><path d="M36.9 18.4h50.4v35H36.9z" style="fill:url(#linear-gradient-2)" transform="rotate(-62 62.062 35.818)"/></g><g style="clip-path:url(#clippath-2)"><path d="M-25.9 15.6h64.6v32.8h-64.6z" style="fill:url(#linear-gradient-3)" transform="rotate(-71.2 6.395 31.938)"/></g><g style="clip-path:url(#clippath-3)"><path d="M7.4 4.6h32.4v38H7.4z" style="fill:url(#linear-gradient-4)" transform="rotate(-71.2 23.598 23.55)"/></g><g style="clip-path:url(#clippath-4)"><path d="M18.2 39.1h24.2v24.8H18.2z" style="fill:url(#linear-gradient-5)" transform="rotate(-71.2 30.318 51.495)"/></g><g style="clip-path:url(#clippath-5)"><path d="M10.3 21.2h47V48h-47z" style="fill:url(#linear-gradient-6)" transform="rotate(-71.2 33.791 34.544)"/></g><path d="M94.5 13.9h12.1c3.8 0 6.6.8 8.6 2.2 2.9 1.8 4.1 5 4.1 8.2s-2.2 6.9-5.1 8.5c7 2.2 7.4 8.2 7.4 10 0 4-1.8 7.4-4.9 9.2-2.8 2-5.2 2.3-10.2 2.3H94.7V13.9Zm6.4 16.7h5.3c1.5 0 2.9-.1 4.1-.6 2-1.1 2.7-2.8 2.7-5s-1.3-4.1-2.7-4.8c-1-.5-2.2-.7-4.3-.7h-5.1zm0 17.9h6.5c1.3 0 2.9-.1 4.3-.7 2-.9 3.5-2.6 3.6-5.6 0-2.8-1.5-4.7-3.6-5.6-1.6-.7-2.9-.7-4.9-.7h-5.9v12.5ZM124.8 24.5h5.4v4.4c1.7-3.5 4.8-5.2 8.8-5.2v5.7h-.4c-5.4 0-8.1 2.9-8.1 8.8v16h-5.7zM171.2 54.2h-5.7V49c-2.1 4-6.3 6.1-11 6.1-9.6 0-15.2-7.4-15.2-15.7s6.6-15.7 15.2-15.7 9.7 3.3 11 6.1v-5.2h5.7v29.7Zm-26.3-14.7c0 4.4 3.2 10.3 10.4 10.3s7.8-2.5 9.2-5.9c.7-1.4 1-2.9 1-4.4s-.2-3.1-.9-4.4c-1.4-3.4-4.8-6.1-9.5-6.1s-10.3 4.9-10.3 10.5ZM176.5 24.5h5.4v4.6c1.4-3 4.8-5.5 10-5.5 9.5.1 12 7 12 13.1v17.4h-5.7V38c0-5.3-2.1-9.2-7.9-9.1-5.6 0-8.1 3.5-8.1 8.7v16.5h-5.7V24.4ZM238 54.2h-5.5V49c-1.6 3.1-5 6.1-11.1 6.1-9.3 0-15.2-7.2-15.2-15.8s6.7-15.7 15.1-15.7 9.8 3.4 11 5.7V13.7h5.7v40.4Zm-26.1-14.8c0 5.5 3.9 10.4 10.4 10.4s5.6-1.2 7.4-3.1c1.9-1.9 3-4.5 2.9-7.5 0-3-1.1-5.5-3-7.3-1.9-1.9-4.4-3-7.3-3-6.3 0-10.4 4.8-10.4 10.4ZM241.1 24.5h5.4v4.2c1.3-2.5 4.7-5.1 9-5.1s5.6.8 7.6 3.2c.8.8 1.6 2.4 1.9 2.9.5-.9 1.1-1.9 2.1-3 1.9-1.9 4.6-3.1 7.9-3.1s5.8.8 8 3c2.6 2.7 3.3 5.5 3.3 11.2v16.4h-5.7V38c0-2.5-.3-4.9-1.6-6.6-1-1.5-2.6-2.5-5.3-2.5s-4.6 1-5.7 2.8c-1.2 1.9-1.4 3.5-1.4 6v16.4h-5.7V37.7c0-2.5-.2-4.3-1.2-5.9-1.1-1.8-2.8-2.9-5.6-3-2.7 0-4.6 1.2-5.6 2.9-1.1 1.6-1.6 3.7-1.6 6.1v16.3h-5.7V24.4ZM319.4 54.2h-5.7V49c-2.1 4-6.3 6.1-11 6.1-9.5 0-15.2-7.4-15.2-15.7s6.6-15.7 15.2-15.7 9.7 3.3 11 6.1v-5.2h5.7v29.7Zm-26.3-14.7c0 4.4 3.2 10.3 10.4 10.3s7.8-2.5 9.2-5.9c.7-1.4 1-2.9 1-4.4s-.2-3.1-.9-4.4c-1.4-3.4-4.8-6.1-9.5-6.1S293 33.9 293 39.5ZM326.8 29h-5.4v-4.5h5.4V13.9h5.7v10.6h5.7V29h-5.7v25.2h-5.7zM369.5 43.8c-1.8 6.4-7.6 11.3-15.1 11.3s-15.9-7.5-15.9-15.7 6.7-15.7 15.6-15.7 13.5 4.4 15.3 11.5h-5.8c-1.5-4-5.2-6.2-9.3-6.2-3 0-5.2.9-7.3 2.9-1.7 1.7-2.9 4.5-2.9 7.5 0 6.1 4.5 10.4 10.1 10.4 5 0 8.1-3.1 9.3-6h5.8ZM372.8 13.9h5.7v14.8c1.8-3.5 5.8-5.1 9.7-5 4.6 0 7.6 1.5 9.5 4.1s2.6 6.1 2.6 10.2v16.2h-5.7V38.3c0-2.7-.5-5-1.7-6.7-1.3-1.6-3.3-2.6-6.2-2.6s-5.1 1.1-6.3 2.7c-1.3 1.6-1.8 3.7-1.8 5.7v16.8h-5.7V13.9Z" class="cls-10"/></g></g></svg>