<svg xmlns="http://www.w3.org/2000/svg" width="50" height="50" fill="none"><path fill="#231F20" d="M10.373 10.722a2.478 2.478 0 0 0-4.956 0l.004 3.064.01 12.67h4.942zM22.872 37.716v11.486l-3.191-.004-3.192-17.26z"/><path fill="#231F20" d="M19.68 35.129v14.069l-6.808-.01v-3.006c0-.566-.226-1.432-.504-1.925L2.531 28.38c-.277-.493-.504-1.359-.504-1.924l-.014-15.734a2.478 2.478 0 0 1 4.955 0v14.102z"/><path fill="#231F20" d="m20.692 32.451-2.87-2.836 1.859 15.58a7.5 7.5 0 0 0 3.191.708v-8.187c0-1.697-.98-4.066-2.18-5.265"/><path fill="#231F20" d="M19.68 34.525v10.67c-2.557-1.19-4.363-3.758-4.363-6.733v-4.264l-7.623-7.624a2.478 2.478 0 0 1 3.504-3.503l6.623 6.544c1.05 1.27 1.86 3.367 1.86 4.91M39.627 10.722a2.478 2.478 0 0 1 4.956 0l-.004 3.064-.01 12.67h-4.942z"/><path fill="#231F20" d="M43.032 24.823V10.722a2.478 2.478 0 0 1 4.955 0l-.014 15.733c0 .565-.228 1.431-.504 1.924l-9.837 15.878c-.278.493-.505 1.359-.505 1.925v3.006l-10 .014V37.716z"/><path fill="#231F20" d="m29.308 32.45 9.495-9.379a2.477 2.477 0 1 1 3.503 3.504l-7.623 7.623v4.264c0 4.11-3.446 7.441-7.555 7.441v-8.188c0-1.696.981-4.065 2.18-5.264"/><path fill="#D12026" d="M35.372 2.925h-5.319V17.82h5.32z"/><path fill="#D12026" d="M32.18 2.925H14.629V17.82H32.18z"/><path fill="#91030E" d="m33.245 15.692-2.128 2.127 2.128 2.128h3.191v-4.255z"/><path fill="#91030E" d="M33.245 15.692H13.564v4.255h19.68zM33.245.798l-2.128 2.127 2.128 2.128h3.191V.798z"/><path fill="#91030E" d="M33.245.798H13.564v4.255h19.68zM33.245 8.245l-2.128 2.127 2.128 2.128h3.191V8.245z"/><path fill="#91030E" d="M33.245 8.245H13.564V12.5h19.68z"/><path fill="#fff" d="M11.762 22.507a3.25 3.25 0 0 0-2.316-.96c-.601 0-1.178.161-1.68.463V10.722c0-.576-.15-1.118-.412-1.588a1.682 1.682 0 0 1 2.221 1.589v8.295a.798.798 0 1 0 1.595 0v-8.296a3.28 3.28 0 0 0-3.275-3.275 3.26 3.26 0 0 0-1.703.478 3.26 3.26 0 0 0-1.701-.478 3.28 3.28 0 0 0-3.276 3.276l.014 15.733c0 .704.262 1.7.607 2.314l.018.03L11.68 44.66c.207.378.394 1.097.394 1.52v3.007a.798.798 0 0 0 1.596 0v-3.007c0-.705-.261-1.7-.606-2.315l-.018-.029L3.22 27.975c-.208-.378-.395-1.097-.395-1.52L2.81 10.721c0-.926.753-1.68 1.68-1.68s1.68.754 1.68 1.68v14.101q0 .03.002.059c.015.819.333 1.633.956 2.257l7.623 7.623a.798.798 0 0 0 1.129-1.128L8.258 26.01a1.67 1.67 0 0 1-.492-1.188c0-.449.175-.87.492-1.188a1.67 1.67 0 0 1 1.188-.492c.448 0 .87.175 1.19.496l9.491 9.376c1.056 1.055 1.947 3.208 1.947 4.7v11.487a.798.798 0 1 0 1.596 0V37.716c0-1.915-1.06-4.476-2.418-5.833zM45.51 7.447c-.623 0-1.206.175-1.702.477a3.26 3.26 0 0 0-1.703-.477 3.28 3.28 0 0 0-3.275 3.275v8.296a.798.798 0 0 0 1.596 0v-8.296a1.682 1.682 0 0 1 2.22-1.588 3.26 3.26 0 0 0-.412 1.588V22.01a3.26 3.26 0 0 0-1.68-.462 3.25 3.25 0 0 0-2.312.956l-9.498 9.383c-1.354 1.354-2.414 3.915-2.414 5.83v11.486a.798.798 0 1 0 1.596 0V37.716c0-1.493.891-3.646 1.943-4.698l9.498-9.383c.317-.317.739-.492 1.188-.492s.87.175 1.187.492.492.74.492 1.188c0 .449-.175.87-.492 1.188l-7.623 7.623a.798.798 0 1 0 1.129 1.128l7.623-7.623a3.26 3.26 0 0 0 .956-2.257l.003-.059v-14.1c0-.927.754-1.68 1.68-1.68s1.68.753 1.68 1.679l-.015 15.732c0 .424-.187 1.143-.395 1.52l-9.827 15.863-.017.03c-.346.614-.606 1.61-.606 2.314v3.007a.798.798 0 0 0 1.596 0v-3.007c0-.423.186-1.142.394-1.52L48.147 28.8l.017-.029c.346-.615.607-1.61.607-2.314l.014-15.734a3.28 3.28 0 0 0-3.275-3.275"/><path fill="#fff" d="M13.564 20.745h22.872c.44 0 .798-.358.798-.798v-4.255a.8.8 0 0 0-.798-.798h-.266v-1.596h.266c.44 0 .798-.357.798-.798V8.245a.8.8 0 0 0-.798-.798h-.266V5.85h.266c.44 0 .798-.357.798-.798V.798A.8.8 0 0 0 36.436 0H13.564a.8.8 0 0 0-.798.798v4.255c0 .44.357.798.798.798h.266v1.596h-.266a.8.8 0 0 0-.798.798V12.5c0 .44.357.798.798.798h.266v1.596h-.266a.8.8 0 0 0-.798.797v4.256c0 .44.357.798.798.798m22.074-1.596H14.362v-2.66h21.276zM14.362 1.596h21.276v2.66H14.362zm1.063 4.255h19.15v1.596h-19.15zm0 7.447H28.99a.798.798 0 0 0 0-1.596H14.362v-2.66h21.276v2.66h-3.457a.798.798 0 0 0 0 1.596h2.394v1.596h-19.15z"/></svg>