<svg xmlns="http://www.w3.org/2000/svg" width="50" height="50" fill="none"><g fill="#fff" clip-path="url(#a)"><path d="M7.579 43.75h5.154c.734 0 1.33-.595 1.33-1.329v-11.65c0-.734-.596-1.33-1.33-1.33H7.58a1.33 1.33 0 0 0-1.329 1.33v11.65a1.33 1.33 0 0 0 1.329 1.329M19.298 43.75h5.154a1.33 1.33 0 0 0 1.33-1.329V22.958a1.33 1.33 0 0 0-1.33-1.329h-5.154c-.734 0-1.33.595-1.33 1.33V42.42a1.33 1.33 0 0 0 1.33 1.329M31.017 43.75h5.154c.734 0 1.329-.595 1.329-1.329V13.583c0-.734-.595-1.329-1.33-1.329h-5.154c-.733 0-1.328.596-1.328 1.33V42.42a1.33 1.33 0 0 0 1.329 1.329M42.735 43.75h5.155a1.33 1.33 0 0 0 1.329-1.329V4.208a1.33 1.33 0 0 0-1.33-1.329h-5.154a1.33 1.33 0 0 0-1.329 1.33V42.42a1.33 1.33 0 0 0 1.33 1.329"/><path d="M48.671 47.07H4.454a1.33 1.33 0 0 1-1.329-1.329V1.33A1.33 1.33 0 0 0 1.796 0h-.467A1.33 1.33 0 0 0 0 1.329v47.342C0 49.405.595 50 1.329 50h47.342c.734 0 1.329-.595 1.329-1.329v-.272c0-.734-.595-1.329-1.329-1.329"/></g><defs><clipPath id="a"><path fill="#fff" d="M0 0h50v50H0z"/></clipPath></defs></svg>