<svg xmlns="http://www.w3.org/2000/svg" width="50" height="50" fill="none"><path fill="#231F20" d="M48.438 26.563V37.5c0 .86-.704 1.563-1.563 1.563H31.25c-.86 0-1.562-.704-1.562-1.563V18.75c0-.86.703-1.562 1.562-1.562h9.375c.469 0 .922.218 1.219.593l6.25 7.797c.078.11.156.235.218.36v.031c.094.187.126.39.126.593"/><path fill="#91030E" d="M32.813 9.375v29.688H12.5c-.86 0-1.562-.704-1.562-1.563V9.375c0-.86.703-1.562 1.562-1.562h18.75c.86 0 1.563.703 1.563 1.562M48.438 26.563v.015l-9.376-.015v-9.375h1.563c.469 0 .922.218 1.219.593l6.25 7.797c.078.11.156.235.218.36v.031c.094.187.126.39.126.593"/><path fill="#D12026" d="M43.75 37.5a4.7 4.7 0 0 1-4.687 4.688 4.7 4.7 0 0 1-4.688-4.688 4.7 4.7 0 0 1 4.688-4.687A4.7 4.7 0 0 1 43.75 37.5M26.563 37.5a4.7 4.7 0 0 1-4.688 4.688 4.7 4.7 0 0 1-4.687-4.688 4.7 4.7 0 0 1 4.687-4.687 4.7 4.7 0 0 1 4.688 4.687M20.313 17.188H3.125a1.562 1.562 0 1 1 0-3.125h17.188a1.562 1.562 0 1 1 0 3.124M21.875 28.125H7.813a1.562 1.562 0 1 1 0-3.125h14.062a1.562 1.562 0 1 1 0 3.125"/></svg>