<svg width="48" height="36" viewBox="0 0 48 36" fill="none" xmlns="http://www.w3.org/2000/svg">
<g id="Packaging_Delivery22">
<g id="Group">
<g id="Group_2">
<path id="Vector" d="M47.4375 19.5625V30.5C47.4375 31.3594 46.7344 32.0625 45.875 32.0625H30.25C29.3906 32.0625 28.6875 31.3594 28.6875 30.5V11.75C28.6875 10.8906 29.3906 10.1875 30.25 10.1875H39.625C40.0938 10.1875 40.5469 10.4063 40.8438 10.7813L47.0938 18.5781C47.1719 18.6875 47.25 18.8125 47.3125 18.9375C47.3125 18.9531 47.3125 18.9531 47.3125 18.9531C47.3125 18.9531 47.3125 18.9531 47.3125 18.9688C47.4062 19.1563 47.4375 19.3594 47.4375 19.5625Z" fill="#276041"/>
</g>
</g>
<g id="Group_3">
<path id="Vector_2" d="M31.8125 2.375V32.0625H11.5C10.6406 32.0625 9.9375 31.3594 9.9375 30.5V2.375C9.9375 1.51562 10.6406 0.8125 11.5 0.8125H30.25C31.1094 0.8125 31.8125 1.51562 31.8125 2.375Z" fill="#AF462E"/>
</g>
<g id="Group_4">
<path id="Vector_3" d="M47.4375 19.5625V19.5781L38.0625 19.5625V10.1875H39.625C40.0938 10.1875 40.5469 10.4063 40.8438 10.7813L47.0938 18.5781C47.1719 18.6875 47.25 18.8125 47.3125 18.9375C47.3125 18.9531 47.3125 18.9531 47.3125 18.9531C47.3125 18.9531 47.3125 18.9531 47.3125 18.9688C47.4062 19.1563 47.4375 19.3594 47.4375 19.5625Z" fill="#AF462E"/>
</g>
<g id="Group_5">
<path id="Vector_4" d="M42.75 30.5C42.75 33.0781 40.6406 35.1875 38.0625 35.1875C35.4844 35.1875 33.375 33.0781 33.375 30.5C33.375 27.9219 35.4844 25.8125 38.0625 25.8125C40.6406 25.8125 42.75 27.9219 42.75 30.5Z" fill="#E56133"/>
</g>
<g id="Group_6">
<path id="Vector_5" d="M25.5625 30.5C25.5625 33.0781 23.4531 35.1875 20.875 35.1875C18.2969 35.1875 16.1875 33.0781 16.1875 30.5C16.1875 27.9219 18.2969 25.8125 20.875 25.8125C23.4531 25.8125 25.5625 27.9219 25.5625 30.5Z" fill="#E56133"/>
</g>
<g id="Group_7">
<path id="Vector_6" d="M19.3125 10.1875H2.125C1.26219 10.1875 0.5625 9.48859 0.5625 8.625C0.5625 7.76141 1.26219 7.0625 2.125 7.0625H19.3125C20.1753 7.0625 20.875 7.76141 20.875 8.625C20.875 9.48859 20.1753 10.1875 19.3125 10.1875Z" fill="#E56133"/>
</g>
<g id="Group_8">
<path id="Vector_7" d="M20.875 21.125H6.8125C5.94969 21.125 5.25 20.4261 5.25 19.5625C5.25 18.6989 5.94969 18 6.8125 18H20.875C21.7378 18 22.4375 18.6989 22.4375 19.5625C22.4375 20.4261 21.7378 21.125 20.875 21.125Z" fill="#E56133"/>
</g>
</g>
</svg>
