<svg xmlns="http://www.w3.org/2000/svg" width="50" height="50" fill="none"><g clip-path="url(#a)"><path fill="#6B7280" d="m7.464 27.505 3.835 13.808a1.67 1.67 0 0 0 1.61 1.223h4.575l-3.95-14.223zM2.453 17.484a1.67 1.67 0 0 0-1.67 1.67v5.01c0 .923.748 1.67 1.67 1.67h2.505v-8.35z"/><path fill="#231F20" d="M35.02 7.463h-2.504a1.67 1.67 0 0 0-1.67 1.67v.392c-2.82 1.282-12.503 5.377-24.419 6.946a1.68 1.68 0 0 0-1.469 1.657v7.064c0 .843.632 1.546 1.47 1.656 11.915 1.569 21.599 5.664 24.418 6.946v.392c0 .922.747 1.67 1.67 1.67h2.505a1.67 1.67 0 0 0 1.67-1.67V9.133a1.67 1.67 0 0 0-1.67-1.67"/><path fill="#231F20" d="M28.34 22.918a1.667 1.667 0 0 1-1.904 1.653 206 206 0 0 0-20.009-1.915c-.837-.04-1.469-.287-1.469-.585v3.12c0 .844.632 1.547 1.468 1.657 10.188 1.34 18.725 4.522 22.752 6.22.102.042 1.424.615 1.668.726V9.524c-.567.259-1.422.633-2.506 1.075z"/><path fill="#6B7280" d="M11.574 31.778a.896.896 0 0 1 1.054-1.08c.567.115 1.119.238 1.668.363l-.763-2.748-6.07-.808L11.3 41.313a1.67 1.67 0 0 0 1.61 1.223h1.233z"/><path fill="#000" d="M35.02 6.68h-2.504c-1.18 0-2.167.837-2.4 1.948-1.924.962-11.362 5.43-23.791 7.067A2.48 2.48 0 0 0 4.64 16.7H2.453A2.456 2.456 0 0 0 0 19.154v5.01c0 1.353 1.1 2.454 2.453 2.454H4.64c.388.535.987.915 1.685 1.007l.373.05 3.847 13.848a2.46 2.46 0 0 0 2.363 1.796h5.412a.783.783 0 1 0 0-1.565h-.24l-3.494-12.576c8.214 2.002 14.061 4.78 15.53 5.514a2.46 2.46 0 0 0 2.4 1.947h2.505c1.352 0 2.453-1.1 2.453-2.453V9.134c0-1.353-1.1-2.454-2.453-2.454M1.567 24.165v-5.01c0-.49.398-.888.887-.888h1.722v6.785H2.453a.89.89 0 0 1-.887-.887m14.888 17.589h-3.546a.89.89 0 0 1-.854-.65l-3.66-13.177c1.54.247 3.029.534 4.455.849zm19.454-7.568c0 .489-.398.887-.887.887h-2.505a.89.89 0 0 1-.888-.887V15.814a.783.783 0 1 0-1.565 0v17.111c-3.083-1.463-12.069-5.344-23.534-6.853a.9.9 0 0 1-.788-.88v-7.064c0-.443.339-.822.788-.881 11.465-1.509 20.451-5.39 23.534-6.853v2.08a.783.783 0 1 0 1.565 0v-3.34c0-.49.398-.888.888-.888h2.505c.49 0 .887.398.887.888zM49.217 20.877h-8.35a.783.783 0 0 0 0 1.566h8.35a.783.783 0 0 0 0-1.566M45.877 14.45q.156.001.308-.064l.835-.357a.783.783 0 1 0-.617-1.44l-.835.358a.783.783 0 0 0 .31 1.503M40.867 16.597q.156 0 .308-.063l2.505-1.074a.783.783 0 0 0-.617-1.44l-2.505 1.075a.783.783 0 0 0 .309 1.502M47.02 29.29l-.837-.358a.783.783 0 1 0-.617 1.439l.837.359a.78.78 0 0 0 1.028-.412.78.78 0 0 0-.41-1.027M43.679 27.859l-2.504-1.073a.783.783 0 1 0-.617 1.439l2.504 1.073a.78.78 0 0 0 1.028-.411.783.783 0 0 0-.411-1.028"/></g><defs><clipPath id="a"><path fill="#fff" d="M0 0h50v50H0z"/></clipPath></defs></svg>