<svg xmlns="http://www.w3.org/2000/svg" width="50" height="50" fill="none"><path fill="#91030E" d="M24.922 27.305 8.828 35.859V18.555l16.094-9.57 15.86 9.57v17.304z"/><path fill="#231F20" d="m24.922 8.984 15.86 9.57V35.86l-15.86-8.554z"/><path fill="#231F20" d="m24.922 8.984-16.094 9.57V35.86l16.094-8.554z"/><path fill="#91030E" d="M24.922 27.11 8.828 18.515v17.343l16.094 9.57 15.86-9.57V18.516z"/><path fill="#fff" d="M24.922 27.11 8.828 18.515v17.343l16.094 9.57 15.86-9.57V18.516z"/><path fill="#91030E" d="M24.922 45.82c-.078 0-.156 0-.195-.039l-16.094-9.57a.41.41 0 0 1-.195-.352V18.516a.41.41 0 0 1 .195-.352.36.36 0 0 1 .39 0l15.899 8.477 15.664-8.477a.36.36 0 0 1 .39 0 .41.41 0 0 1 .196.352v17.343a.41.41 0 0 1-.195.352l-15.86 9.57c-.039 0-.117.04-.195.04M9.219 35.664 24.922 45l15.469-9.336V19.18l-15.274 8.28c-.117.08-.273.08-.351 0L9.219 19.18z"/><path fill="#231F20" d="m24.922 45.43 15.86-9.57V18.515l-15.86 8.593z"/><path fill="#91030E" d="M24.922 45.82c-.078 0-.117 0-.195-.039a.41.41 0 0 1-.196-.351V27.11a.41.41 0 0 1 .196-.352l15.859-8.594a.36.36 0 0 1 .39 0 .41.41 0 0 1 .196.352v17.343a.41.41 0 0 1-.195.352l-15.86 9.57c-.039 0-.117.04-.195.04m.39-18.476v17.383l15.079-9.063V19.18z"/><path fill="#231F20" d="m12.344 29.727 12.578 7.109v-9.727L8.828 18.516z"/><path fill="#fff" d="m1.563 22.695 7.265-4.18 16.094 8.594-7.735 4.414z"/><path fill="#fff" d="m1.563 14.375 7.265 4.18 16.094-9.57-7.695-4.415z"/><path fill="#91030E" d="M8.828 18.945c-.078 0-.117 0-.195-.039l-7.266-4.218c-.117-.04-.195-.196-.195-.313a.41.41 0 0 1 .195-.352L17.031 4.22a.36.36 0 0 1 .39 0l7.735 4.414a.41.41 0 0 1 .196.351.41.41 0 0 1-.196.352L9.023 18.867a.3.3 0 0 1-.195.078m-6.523-4.61 6.523 3.75 15.352-9.1-6.953-3.946z"/><path fill="#231F20" d="m32.188 34.102 8.593-4.414V18.555L25.04 27.03l-.117.078z"/><path fill="#fff" d="m24.922 27.11 7.265 4.18 16.25-8.36-7.656-4.375z"/><path fill="#91030E" d="M17.188 31.914c-.079 0-.118 0-.196-.039L1.367 23.047a.41.41 0 0 1-.195-.352.41.41 0 0 1 .195-.351l7.266-4.18a.36.36 0 0 1 .39 0l16.094 8.594a.41.41 0 0 1 .195.351.41.41 0 0 1-.195.352l-7.734 4.414c-.04.04-.117.04-.195.04M2.344 22.695l14.844 8.36 6.914-3.946-15.274-8.125z"/><path fill="#91030E" d="M32.188 31.68c-.079 0-.118 0-.196-.04l-7.265-4.18a.41.41 0 0 1-.196-.35.41.41 0 0 1 .196-.352l15.859-8.594a.36.36 0 0 1 .39 0l7.657 4.414a.41.41 0 0 1 .195.352.41.41 0 0 1-.195.351l-16.25 8.36c-.078.039-.117.039-.196.039m-6.446-4.57 6.485 3.75 15.43-7.93-6.876-3.946z"/><path fill="#fff" d="m24.922 8.984 7.305-4.18 16.21 9.337-7.656 4.414z"/><path fill="#91030E" d="M40.781 18.945c-.078 0-.156 0-.195-.039l-15.86-9.57a.41.41 0 0 1-.195-.352.41.41 0 0 1 .196-.351l7.304-4.14a.36.36 0 0 1 .39 0l16.212 9.335a.41.41 0 0 1 .195.352.41.41 0 0 1-.195.351l-7.656 4.414c-.079-.039-.157 0-.196 0m-15.078-9.96 15.078 9.1 6.875-3.944-15.43-8.868z"/><path fill="#D12026" d="M24.922 5.86 8.828 14.452v4.102l16.094 8.554 15.86-8.554v-4.14z"/><path fill="#91030E" d="M24.922 27.5c-.078 0-.117 0-.195-.04L8.672 18.907a.41.41 0 0 1-.195-.351v-4.102a.41.41 0 0 1 .195-.351l16.094-8.594c.117-.078.273-.078.351 0l15.82 8.555a.41.41 0 0 1 .196.351v4.14a.41.41 0 0 1-.196.352L25.079 27.5zM9.219 18.32l15.703 8.32 15.469-8.359V14.61L24.92 6.33 9.22 14.687z"/><path fill="#231F20" d="M24.922 23.008 8.828 14.453v4.102l16.094 8.554z"/><path fill="#231F20" d="m24.922 23.008 15.86-8.594v4.14l-15.86 8.555z"/></svg>