<svg width="50" height="40" viewBox="0 0 50 40" fill="none" xmlns="http://www.w3.org/2000/svg">
<g id="Group">
<path id="Vector" d="M24.9381 8.77404C24.2154 9.12394 23.4994 9.6088 22.8352 10.2737C19.506 13.6036 16.4797 16.63 16.4797 16.63L16.4809 16.6319C16.4629 16.6501 16.4447 16.665 16.4265 16.6837C15.5648 17.5461 15.5306 18.9209 16.3264 19.823C16.358 19.8592 16.3917 19.8948 16.4265 19.929C17.3212 20.8249 18.7738 20.8271 19.6719 19.929L23.1677 16.4332C23.7708 16.6542 24.3638 16.7831 24.9327 16.8476C25.7078 16.9335 26.4358 16.9013 27.0833 16.81C28.6616 16.5863 28.4964 16.6515 29.4118 16.3506C30.3252 16.051 31.3514 15.4371 31.3514 15.4371L31.9727 16.0577C32.0412 16.1242 33.625 17.7106 34.4329 18.5172C34.576 18.6609 34.6974 18.7791 34.7788 18.8638C34.8722 18.9611 34.9763 19.0317 35.0407 19.1257L39.0718 23.1568C40.2337 21.8531 41.5608 19.9115 41.397 17.6824L31.3245 7.61134C31.3245 7.61134 27.8381 7.36222 24.9381 8.77404Z" fill="white"/>
<path id="Vector_2" d="M25.4995 33.5119C24.6075 32.6187 23.1596 32.6187 22.267 33.5119L21.6035 34.1754C22.494 33.2836 22.4933 31.8389 21.6015 30.9463C20.7089 30.0551 19.2629 30.0551 18.3703 30.947C19.2629 30.0551 19.2629 28.6091 18.3703 27.7158C17.4784 26.8225 16.0317 26.8239 15.1391 27.7158C16.0317 26.8239 16.0317 25.3773 15.1391 24.4839C14.2472 23.5921 12.8006 23.5921 11.9079 24.4853L9.90985 26.4826C9.01727 27.3759 9.01727 28.8212 9.90985 29.7145C10.8017 30.6065 12.2478 30.6065 13.1403 29.7145C12.2477 30.6065 12.2477 32.053 13.1403 32.9456C14.0336 33.8375 15.4796 33.8375 16.3722 32.9456C15.4796 33.8375 15.4796 35.2836 16.3722 36.1769C17.2647 37.0688 18.7107 37.0688 19.6034 36.1769L20.2677 35.5119C19.3771 36.4052 19.3777 37.8498 20.2696 38.7425C21.1622 39.6343 22.6082 39.6343 23.5009 38.7425L25.4996 36.7437C26.3914 35.8498 26.3914 34.4038 25.4995 33.5119Z" fill="white"/>
<path id="Vector_3" d="M49.6081 12.4102L37.846 0.646692C37.3234 0.1255 36.4786 0.1255 35.9574 0.646692L32.1848 4.41915C31.6636 4.94034 31.6636 5.78527 32.1848 6.30714L43.9483 18.0699C44.4688 18.5924 45.3151 18.5924 45.8356 18.0699L49.6081 14.2967C50.1306 13.777 50.1306 12.932 49.6081 12.4102ZM46.2553 15.0188C45.6938 15.5789 44.7858 15.5789 44.2263 15.0188C43.6663 14.4579 43.6663 13.5499 44.2263 12.9898C44.7858 12.4296 45.6938 12.4296 46.2553 12.9898C46.8155 13.5499 46.8148 14.4579 46.2553 15.0188Z" fill="white"/>
<path id="Vector_4" d="M17.8141 4.75234L14.0423 0.979883C13.5212 0.458691 12.6756 0.458691 12.1544 0.979883L0.390894 12.7433C-0.130298 13.2631 -0.130298 14.1094 0.390894 14.6299L4.16345 18.4037C4.68396 18.9243 5.53083 18.9243 6.05066 18.4037L17.8141 6.64023C18.336 6.11904 18.336 5.27412 17.8141 4.75234ZM5.77322 15.3519C5.21306 15.9113 4.30447 15.9113 3.74421 15.3519C3.18416 14.7911 3.18416 13.883 3.74421 13.3229C4.30437 12.7628 5.21306 12.7628 5.77322 13.3229C6.33337 13.883 6.33337 14.791 5.77322 15.3519Z" fill="white"/>
<path id="Vector_5" d="M38.8211 25.5478L38.0918 24.8171L31.0108 17.7361L30.534 17.9477L30.0148 18.1351L29.9773 18.1465C29.8859 18.1754 29.0316 18.4366 27.3473 18.675C26.4566 18.7993 25.5742 18.8147 24.7199 18.7174C24.3821 18.6798 24.0463 18.6246 23.7145 18.5522L21.0038 21.2615C19.3751 22.8902 16.723 22.8902 15.0942 21.2615C15.0371 21.2038 14.982 21.1453 14.9311 21.0876L14.9136 21.0681C13.8854 19.9022 13.6241 18.3064 14.1077 16.9215L15.15 15.2995L15.148 15.2976L21.5036 8.94268C21.7621 8.68477 22.0335 8.44434 22.3155 8.21729C20.335 7.82842 18.6733 7.94326 18.6733 7.94326L8.60284 18.0155C8.46719 19.8698 9.74063 21.9022 10.6466 23.089C12.2767 21.5301 14.8691 21.5503 16.4709 23.1528C17.0673 23.7485 17.4428 24.4826 17.6012 25.2522C18.3722 25.4121 19.1057 25.7869 19.7021 26.3833C20.2984 26.9804 20.6739 27.7145 20.8324 28.4848C21.6027 28.6433 22.3375 29.018 22.9333 29.6145C23.3315 30.0127 23.6317 30.4722 23.8339 30.9638C24.9179 30.9504 26.006 31.356 26.8308 32.1801C28.4567 33.8047 28.4561 36.4509 26.8308 38.0749L26.1658 38.7411L26.4989 39.0743C27.3923 39.9676 28.8382 39.9676 29.7309 39.0743C30.6234 38.1823 30.6234 36.7357 29.7309 35.8431L30.3957 36.5101C31.289 37.402 32.7343 37.402 33.6269 36.5101C34.5194 35.6168 34.5201 34.1708 33.6269 33.2775C34.5201 34.1708 35.9654 34.1708 36.858 33.2775C37.75 32.3863 37.752 30.9396 36.858 30.0463C37.752 30.9396 39.1973 30.9396 40.0893 30.0463C40.9825 29.1545 40.9825 27.7077 40.0893 26.8158L38.8211 25.5478Z" fill="white"/>
</g>
</svg>
