<svg xmlns="http://www.w3.org/2000/svg" width="50" height="50" fill="none"><g fill="#fff" clip-path="url(#a)"><path d="M24.938 13.774a7.7 7.7 0 0 0-2.103 1.5L16.48 21.63v.002l-.053.052a2.294 2.294 0 1 0 3.245 3.245l3.496-3.496c.603.221 1.196.35 1.765.415a8.6 8.6 0 0 0 2.15-.038c1.579-.224 1.413-.159 2.329-.46.913-.299 1.94-.913 1.94-.913l.62.62c.07.067 1.653 1.654 2.46 2.46.144.144.265.262.347.347.093.097.197.168.262.262l4.03 4.03c1.163-1.303 2.49-3.244 2.326-5.474l-10.072-10.07s-3.487-.25-6.387 1.162M25.5 38.512a2.285 2.285 0 0 0-3.233 0l-.663.663a2.284 2.284 0 0 0-3.234-3.228 2.284 2.284 0 1 0-3.23-3.231 2.285 2.285 0 1 0-3.232-3.23L9.91 31.482a2.285 2.285 0 0 0 3.23 3.232 2.284 2.284 0 1 0 3.232 3.23 2.284 2.284 0 1 0 3.231 3.232l.665-.665a2.286 2.286 0 0 0 3.233 3.23l1.999-1.998a2.286 2.286 0 0 0 0-3.232M49.608 17.41 37.846 5.647a1.336 1.336 0 0 0-1.889 0l-3.772 3.772a1.335 1.335 0 0 0 0 1.888L43.948 23.07c.52.522 1.367.522 1.888 0l3.772-3.773a1.33 1.33 0 0 0 0-1.887m-3.353 2.609a1.435 1.435 0 1 1-2.029-2.03 1.435 1.435 0 0 1 2.03 2.03M17.814 9.752 14.042 5.98a1.335 1.335 0 0 0-1.888 0L.391 17.743a1.334 1.334 0 0 0 0 1.887l3.772 3.774c.521.52 1.368.52 1.888 0L17.814 11.64a1.334 1.334 0 0 0 0-1.888m-12.04 10.6a1.435 1.435 0 1 1-2.028-2.029 1.435 1.435 0 0 1 2.027 2.029"/><path d="m38.821 30.548-.73-.73-7.08-7.082-.477.212-.52.187-.037.011c-.091.03-.945.29-2.63.529-.89.124-1.773.14-2.627.042a10 10 0 0 1-1.005-.165l-2.711 2.71a4.185 4.185 0 0 1-6.073-.174l-.017-.02a4.18 4.18 0 0 1-.806-4.146l1.042-1.623-.002-.001 6.356-6.355q.388-.386.811-.726c-1.98-.389-3.642-.274-3.642-.274L8.603 23.016c-.136 1.854 1.138 3.886 2.044 5.073a4.17 4.17 0 0 1 5.824.064c.596.596.972 1.33 1.13 2.1a4.15 4.15 0 0 1 3.231 3.232 4.14 4.14 0 0 1 3.002 2.479 4.16 4.16 0 0 1 2.997 1.216 4.17 4.17 0 0 1 0 5.895l-.665.666.333.333a2.284 2.284 0 1 0 3.232-3.231l.665.667a2.285 2.285 0 0 0 3.23-3.232 2.283 2.283 0 0 0 3.232 0 2.283 2.283 0 0 0 0-3.232c.894.894 2.34.894 3.231 0a2.28 2.28 0 0 0 0-3.23z"/></g><defs><clipPath id="a"><path fill="#fff" d="M0 0h50v50H0z"/></clipPath></defs></svg>