<svg xmlns="http://www.w3.org/2000/svg" width="50" height="50" fill="none"><g clip-path="url(#a)"><path fill="#91030E" d="M41.336 24.989c0 10.47-8.487 18.957-18.957 18.957S3.42 35.459 3.42 24.989 11.909 6.032 22.379 6.032s18.957 8.487 18.957 18.957"/><path fill="#D12026" d="M23.477.79c12.505.558 22.543 10.597 23.101 23.101a1.053 1.053 0 0 1-1.053 1.098H22.379V1.843c0-.599.499-1.08 1.098-1.052"/><path fill="#fff" d="m45.962 42.637-9.094-9.117a2.106 2.106 0 0 0-2.979 0l-2.376-2.376c2.91-4.302 2.462-10.198-1.348-14.007-4.318-4.32-11.32-4.32-15.639 0-4.319 4.318-4.318 11.32 0 15.638 3.81 3.81 9.706 4.258 14.008 1.348l2.376 2.376a2.106 2.106 0 0 0 0 2.979l9.094 9.117a2.106 2.106 0 0 0 2.98 0l2.978-2.979a2.106 2.106 0 0 0 0-2.979"/><path fill="#fff" d="m31.513 31.144 2.376 2.376-2.979 2.98-2.376-2.377a11.1 11.1 0 0 0 2.979-2.98"/><path fill="#C3E4ED" d="M29.718 24.956a7.372 7.372 0 1 1-14.744 0 7.372 7.372 0 0 1 14.744 0"/><path fill="#DCF3F9" d="M26.76 19.052a7.4 7.4 0 0 1 2.53 3.428l-9.42 9.42a7.4 7.4 0 0 1-3.429-2.529zm-11.36 8.38q.186.52.444 1l9.978-9.977a7 7 0 0 0-1-.443z"/><path fill="#FED766" d="M29.717 24.989h-6.285a1.053 1.053 0 0 1-1.053-1.053v-6.351a7.35 7.35 0 0 1 5.18 2.158 7.35 7.35 0 0 1 2.158 5.246"/><path fill="#fff" d="M22.379 19.443a2.106 2.106 0 1 1 0 4.213 2.106 2.106 0 0 1 0-4.213"/><path fill="#231F20" d="m46.521 42.08-7.098-7.116a19.7 19.7 0 0 0 2.687-9.185h3.415c.5 0 .987-.208 1.333-.57.35-.367.531-.847.509-1.353a24.93 24.93 0 0 0-7.301-16.553A24.93 24.93 0 0 0 23.512.002a1.82 1.82 0 0 0-1.353.508c-.362.347-.57.833-.57 1.334v3.414c-10.524.416-18.957 9.107-18.957 19.73 0 10.89 8.858 19.748 19.747 19.748 3.519 0 6.951-.932 9.969-2.7l7.098 7.117a2.89 2.89 0 0 0 2.048.847c.741 0 1.483-.282 2.047-.847l2.98-2.979a2.88 2.88 0 0 0 .847-2.047c0-.774-.3-1.501-.847-2.047m-8.254-8.275-.84-.842a2.88 2.88 0 0 0-2.048-.85 2.9 2.9 0 0 0-1.413.367l-1.445-1.444a11.74 11.74 0 0 0 1.645-5.257h6.364a18.1 18.1 0 0 1-2.263 8.026m-5.494-.285-1.863 1.862-1.169-1.169a12 12 0 0 0 1.863-1.861zM23.168 1.844a.264.264 0 0 1 .273-.265c12.197.544 21.804 10.151 22.348 22.347a.264.264 0 0 1-.264.273H34.17a11.76 11.76 0 0 0-3.447-7.62 11.8 11.8 0 0 0-7.555-3.437zm-.822 12.848c2.63 0 5.26 1.001 7.261 3.003a10.2 10.2 0 0 1 3.008 7.261v.054a10.2 10.2 0 0 1-3.008 7.207 10.3 10.3 0 0 1-1.525 1.258 10.26 10.26 0 0 1-5.736 1.745c-2.63 0-5.26-1.001-7.262-3.003a10.2 10.2 0 0 1-3.007-7.261c0-2.743 1.068-5.322 3.007-7.261a10.24 10.24 0 0 1 7.262-3.003m.033 28.465c-10.018 0-18.168-8.15-18.168-18.168 0-9.753 7.726-17.736 17.378-18.15v6.299a11.8 11.8 0 0 0-7.62 3.44 11.77 11.77 0 0 0-3.471 8.378 11.77 11.77 0 0 0 3.47 8.378c3.914 3.913 9.906 4.511 14.455 1.794l1.447 1.447c-.239.427-.366.91-.366 1.413 0 .774.301 1.501.848 2.047l.84.843a18.1 18.1 0 0 1-8.813 2.279m23.025 1.9-2.98 2.98c-.248.248-.578.385-.93.385s-.683-.137-.93-.385l-7.526-7.544-.023-.023-1.547-1.55a1.3 1.3 0 0 1-.385-.932c0-.351.137-.682.385-.93l2.98-2.98a1.32 1.32 0 0 1 1.862 0l1.546 1.55.023.023 7.525 7.545c.248.248.385.579.385.93s-.136.683-.385.932m-28.83-14.33a8.14 8.14 0 0 0 5.772 2.387c2.09 0 4.18-.796 5.771-2.387a8.1 8.1 0 0 0 2.39-5.77c0-2.181-.848-4.23-2.39-5.772-3.182-3.182-8.36-3.182-11.542 0a8.1 8.1 0 0 0-2.391 5.771c0 2.18.849 4.23 2.39 5.771m1.117-10.425a6.56 6.56 0 0 1 4.655-1.926c1.686 0 3.371.642 4.655 1.925a6.54 6.54 0 0 1 1.928 4.655A6.54 6.54 0 0 1 27 29.611a6.59 6.59 0 0 1-9.31 0 6.54 6.54 0 0 1-1.928-4.655c0-1.758.685-3.411 1.928-4.654"/></g><defs><clipPath id="a"><path fill="#fff" d="M0 0h50v50H0z"/></clipPath></defs></svg>