<svg xmlns="http://www.w3.org/2000/svg" width="50" height="50" fill="none"><g clip-path="url(#a)"><path fill="#231F20" d="M45.395 13.482H4.631V49.15h40.764z"/><path fill="#231F20" d="M7.179 13.482H4.63V49.15h2.548z"/><path fill="#91030E" d="M4.631 23.673a3.397 3.397 0 0 0 3.397-3.397H1.234a3.397 3.397 0 0 0 3.397 3.397"/><path fill="#D12026" d="M11.425 23.673a3.397 3.397 0 0 0 3.397-3.397H8.028a3.397 3.397 0 0 0 3.397 3.397"/><path fill="#91030E" d="M18.22 23.673a3.397 3.397 0 0 0 3.396-3.397h-6.794a3.397 3.397 0 0 0 3.397 3.397"/><path fill="#D12026" d="M25.013 23.673a3.397 3.397 0 0 0 3.397-3.397h-6.794a3.397 3.397 0 0 0 3.397 3.397"/><path fill="#91030E" d="M31.807 23.673a3.397 3.397 0 0 0 3.397-3.397H28.41a3.397 3.397 0 0 0 3.397 3.397"/><path fill="#D12026" d="M38.601 23.673a3.397 3.397 0 0 0 3.397-3.397h-6.794a3.397 3.397 0 0 0 3.397 3.397"/><path fill="#91030E" d="M45.395 23.673a3.397 3.397 0 0 0 3.397-3.397h-6.794a3.397 3.397 0 0 0 3.397 3.397M5.48.743h5.096L8.028 20.276H1.234z"/><path fill="#D12026" d="M10.576.743h5.945l-1.699 19.533H8.028z"/><path fill="#91030E" d="M16.52.743h5.096v19.533h-6.794z"/><path fill="#D12026" d="M28.41.743h-6.794v19.533h6.794z"/><path fill="#91030E" d="M28.41.743h5.096l1.698 19.533H28.41z"/><path fill="#D12026" d="M33.506.743h5.944l2.548 19.533h-6.794z"/><path fill="#91030E" d="M39.45.743h5.096l4.246 19.533h-6.794z"/><path fill="#6B7280" d="M21.616 26.22H8.028v22.93h13.588z"/><path fill="#6B7280" d="M10.575 26.22H8.028v22.93h2.547z"/><path fill="#AFF0E8" d="M40.3 26.22H26.71v10.192H40.3z"/><path fill="#74DBC9" d="m37.858 26.22-10.19 10.192h7.005l5.627-5.626V26.22zM26.712 26.22v6.476l6.475-6.475zM37.168 36.412H40.3V33.28z"/><path fill="#D12026" d="M17.37 39.384a1.699 1.699 0 1 0 0-3.397 1.699 1.699 0 0 0 0 3.397"/><path fill="#6B5555" d="M.438 20.282c0 .002-.027.004-.027.006a4.194 4.194 0 0 0 3.37 4.104v17.116a.796.796 0 1 0 1.593 0V24.392c1.168-.205 2.014-.815 2.627-1.662a4.21 4.21 0 0 0 3.41 1.74 4.2 4.2 0 0 0 3.404-1.74 4.193 4.193 0 0 0 6.8 0 4.19 4.19 0 0 0 6.795 0 4.19 4.19 0 0 0 3.397 1.74 4.19 4.19 0 0 0 3.397-1.74 4.19 4.19 0 0 0 3.397 1.74c1.396 0 2.608-.687 3.37-1.74a4.15 4.15 0 0 0 2.575 1.662v3.528a.796.796 0 1 0 1.592 0v-3.528c2.017-.372 3.418-2.069 3.424-4.103 0-.061.008-.122-.005-.182L45.317.6c-.08-.366-.396-.6-.77-.6H5.48c-.374 0-.698.234-.778.6L.456 20.12a.7.7 0 0 0-.018.162M4.63 22.93c-1.157 0-2.14-.85-2.476-1.805h4.952c-.337.956-1.32 1.805-2.476 1.805m6.794 0c-1.156 0-2.14-.85-2.476-1.805H13.9c-.337.956-1.32 1.805-2.476 1.805m6.794 0c-1.156 0-2.139-.85-2.476-1.805h4.952c-.337.956-1.32 1.805-2.476 1.805m6.794 0c-1.156 0-2.139-.85-2.476-1.805h4.952c-.337.956-1.32 1.805-2.476 1.805m4.14-21.338h3.623l1.56 17.94h-5.183zm2.654 21.338c-1.156 0-2.139-.85-2.476-1.805h4.952c-.337.956-1.32 1.805-2.476 1.805m6.794 0c-1.156 0-2.139-.85-2.476-1.805h4.953c-.338.956-1.32 1.805-2.477 1.805m6.794 0c-1.156 0-2.139-.85-2.476-1.805h4.953c-.337.956-1.32 1.805-2.477 1.805m-1.49-21.338 3.9 17.94h-5.108l-2.34-17.94zm-5.154 0 2.34 17.94h-5.157l-1.56-17.94zm-11.19 17.94h-5.202V1.593h5.202zm-6.794 0H15.69l1.56-17.94h3.516zm-6.675 0H8.935l2.34-17.94h4.377zm-7.97-17.94h3.547l-2.34 17.94H2.222z"/><path fill="#6B5555" d="M40.3 25.478H26.712c-.44 0-.85.303-.85.743v9.448h-.849a.796.796 0 1 0 0 1.592h16.985a.796.796 0 1 0 0-1.592h-.955V26.22c0-.44-.303-.743-.743-.743m-12.845 10.19V27.07H39.45v8.599zM17.37 35.191a2.5 2.5 0 0 0-2.495 2.495 2.5 2.5 0 0 0 2.495 2.495 2.5 2.5 0 0 0 2.494-2.495 2.5 2.5 0 0 0-2.494-2.495m0 3.397a.903.903 0 0 1 0-1.805.903.903 0 0 1 0 1.805"/><path fill="#6B5555" d="M48.792 48.408h-2.654V31.316a.796.796 0 1 0-1.592 0v17.092H22.36V26.22c0-.44-.303-.743-.743-.743H8.028c-.44 0-.85.303-.85.743v22.187H5.375v-3.504a.796.796 0 1 0-1.592 0v3.504H1.234a.796.796 0 1 0 0 1.592h47.558a.796.796 0 1 0 0-1.592m-40.02 0V27.07h11.995v21.338z"/></g><defs><clipPath id="a"><path fill="#fff" d="M0 0h50v50H0z"/></clipPath></defs></svg>