<svg xmlns="http://www.w3.org/2000/svg" width="50" height="50" fill="none"><g clip-path="url(#a)"><path fill="#fff" d="M1.694 16.632 25.052.782l23.358 15.85v32.534H1.694z"/><path fill="#fff" d="M26.72 1.914 25.053.782 1.694 16.632v32.534h3.337V16.632z"/><path fill="#6B7280" d="M40.068 20.803H10.037v28.363h30.03z"/><path fill="#6B7280" d="M40.068 20.803H10.037v28.363h30.03z"/><path fill="#6B7280" d="M13.373 20.803h-3.336v28.363h3.336zM41.736 17.466H8.368v3.337h33.368z"/><path fill="#D12026" d="M20.047 29.145h-10.01v10.01h10.01z"/><path fill="#D12026" d="M12.54 29.145h-2.503v10.01h2.502z"/><path fill="#91030E" d="M16.71 29.145h-3.337v5.005h3.337z"/><path fill="#D12026" d="M20.047 39.155h-10.01v10.01h10.01z"/><path fill="#D12026" d="M12.54 39.155h-2.503v10.01h2.502z"/><path fill="#91030E" d="M16.71 39.155h-3.337v5.005h3.337z"/><path fill="#D12026" d="M30.057 39.155h-10.01v10.01h10.01z"/><path fill="#D12026" d="M22.55 39.155h-2.503v10.01h2.503z"/><path fill="#91030E" d="M26.72 39.155h-3.336v5.005h3.337z"/><path fill="#231F20" d="M48.823 15.985 25.478.135a.77.77 0 0 0-.872 0l-23.38 15.85a.8.8 0 0 0-.366.647v32.534c0 .432.402.834.834.834H48.41c.432 0 .73-.402.73-.834V16.632c0-.26-.103-.502-.317-.647M9.098 20.073V18.3h31.804v1.773zm5.005 9.906h1.773v3.441h-1.773zm-.73 5.005h3.337c.432 0 .73-.402.73-.834v-4.17h1.773v8.446h-8.447v-8.447h1.773v4.171c0 .432.402.834.834.834m.73 5.006h1.773v3.44h-1.773zm-3.337 0h1.773v4.17c0 .433.402.835.834.835h3.337c.432 0 .73-.402.73-.834V39.99h1.773v8.446h-8.447zm10.01 8.446V39.99h1.773v4.17c0 .433.403.835.835.835h3.337c.431 0 .73-.402.73-.834V39.99h1.772v8.446zm3.338-8.446h1.772v3.44h-1.772zm23.462 8.446h-6.778V31.648a.782.782 0 1 0-1.564 0v16.788h-8.447v-9.28c0-.432-.298-.73-.73-.73h-9.28v-9.28c0-.433-.298-.73-.73-.73h-9.28v-6.779h28.467v6.674a.782.782 0 1 0 1.564 0v-6.674h.938c.432 0 .73-.402.73-.834v-3.337c0-.432-.298-.73-.73-.73H8.368c-.432 0-.834.299-.834.73v3.337c0 .432.402.834.834.834h.834v26.8H2.424v-31.39L25 1.727l22.576 15.32z"/><path fill="#231F20" d="M20.933 7.508c0 .432.35.782.782.782h6.674a.782.782 0 1 0 0-1.564h-6.674a.78.78 0 0 0-.782.782M28.389 10.063h-6.674a.782.782 0 0 0 0 1.564h6.674a.782.782 0 0 0 0-1.564M28.389 13.4h-6.674a.782.782 0 0 0 0 1.563h6.674a.782.782 0 0 0 0-1.564M13.373 37.487h3.337a.782.782 0 0 0 0-1.564h-3.337a.782.782 0 0 0 0 1.564M16.71 45.933h-3.337a.782.782 0 0 0 0 1.564h3.337a.782.782 0 0 0 0-1.564M26.72 45.933h-3.336a.782.782 0 0 0 0 1.564h3.337a.782.782 0 0 0 0-1.564"/></g><defs><clipPath id="a"><path fill="#fff" d="M0 0h50v50H0z"/></clipPath></defs></svg>