<svg width="50" height="50" viewBox="0 0 50 50" fill="none" xmlns="http://www.w3.org/2000/svg">
<g clip-path="url(#clip0_46_621)">
<path d="M7.579 43.75H12.7334C13.4674 43.75 14.0624 43.1549 14.0624 42.421V30.7709C14.0624 30.0369 13.4673 29.4419 12.7334 29.4419H7.579C6.84502 29.4419 6.25 30.037 6.25 30.7709V42.421C6.25 43.1549 6.84512 43.75 7.579 43.75Z" fill="white"/>
<path d="M19.2978 43.75H24.4521C25.1861 43.75 25.7812 43.1549 25.7812 42.421V22.9584C25.7812 22.2244 25.186 21.6294 24.4521 21.6294H19.2978C18.5638 21.6294 17.9688 22.2245 17.9688 22.9584V42.421C17.9688 43.1549 18.5639 43.75 19.2978 43.75Z" fill="white"/>
<path d="M31.0165 43.75H36.1709C36.9049 43.75 37.4999 43.1549 37.4999 42.421V13.5834C37.4999 12.8494 36.9048 12.2544 36.1709 12.2544H31.0165C30.2825 12.2544 29.6875 12.8495 29.6875 13.5834V42.421C29.6875 43.1549 30.2826 43.75 31.0165 43.75Z" fill="white"/>
<path d="M42.7353 43.75H47.8896C48.6236 43.75 49.2187 43.1549 49.2187 42.421V4.2084C49.2187 3.47441 48.6235 2.87939 47.8896 2.87939H42.7353C42.0013 2.87939 41.4062 3.47451 41.4062 4.2084V42.421C41.4062 43.1549 42.0014 43.75 42.7353 43.75Z" fill="white"/>
<path d="M48.671 47.0703H4.454C3.72012 47.0703 3.125 46.4752 3.125 45.7413V1.329C3.125 0.595117 2.52988 0 1.796 0H1.3291C0.595117 0 0 0.595117 0 1.329V48.6709C0 49.4049 0.595117 50 1.329 50H48.6709C49.4049 50 49.9999 49.4049 49.9999 48.671V48.3994C50 47.6654 49.4049 47.0703 48.671 47.0703Z" fill="white"/>
</g>
<defs>
<clipPath id="clip0_46_621">
<rect width="50" height="50" fill="white"/>
</clipPath>
</defs>
</svg>
