<svg width="50" height="50" viewBox="0 0 50 50" fill="none" xmlns="http://www.w3.org/2000/svg">
<path d="M48.4375 26.5625V37.5C48.4375 38.3594 47.7344 39.0625 46.875 39.0625H31.25C30.3906 39.0625 29.6875 38.3594 29.6875 37.5V18.75C29.6875 17.8906 30.3906 17.1875 31.25 17.1875H40.625C41.0938 17.1875 41.5469 17.4063 41.8438 17.7813L48.0938 25.5781C48.1719 25.6875 48.25 25.8125 48.3125 25.9375C48.3125 25.9531 48.3125 25.9531 48.3125 25.9531C48.3125 25.9531 48.3125 25.9531 48.3125 25.9688C48.4062 26.1563 48.4375 26.3594 48.4375 26.5625Z" fill="#231F20"/>
<path d="M32.8125 9.375V39.0625H12.5C11.6406 39.0625 10.9375 38.3594 10.9375 37.5V9.375C10.9375 8.51562 11.6406 7.8125 12.5 7.8125H31.25C32.1094 7.8125 32.8125 8.51562 32.8125 9.375Z" fill="#91030E"/>
<path d="M48.4375 26.5625V26.5781L39.0625 26.5625V17.1875H40.625C41.0938 17.1875 41.5469 17.4063 41.8438 17.7813L48.0938 25.5781C48.1719 25.6875 48.25 25.8125 48.3125 25.9375C48.3125 25.9531 48.3125 25.9531 48.3125 25.9531C48.3125 25.9531 48.3125 25.9531 48.3125 25.9688C48.4062 26.1563 48.4375 26.3594 48.4375 26.5625Z" fill="#91030E"/>
<path d="M43.75 37.5C43.75 40.0781 41.6406 42.1875 39.0625 42.1875C36.4844 42.1875 34.375 40.0781 34.375 37.5C34.375 34.9219 36.4844 32.8125 39.0625 32.8125C41.6406 32.8125 43.75 34.9219 43.75 37.5Z" fill="#D12026"/>
<path d="M26.5625 37.5C26.5625 40.0781 24.4531 42.1875 21.875 42.1875C19.2969 42.1875 17.1875 40.0781 17.1875 37.5C17.1875 34.9219 19.2969 32.8125 21.875 32.8125C24.4531 32.8125 26.5625 34.9219 26.5625 37.5Z" fill="#D12026"/>
<path d="M20.3125 17.1875H3.125C2.26219 17.1875 1.5625 16.4886 1.5625 15.625C1.5625 14.7614 2.26219 14.0625 3.125 14.0625H20.3125C21.1753 14.0625 21.875 14.7614 21.875 15.625C21.875 16.4886 21.1753 17.1875 20.3125 17.1875Z" fill="#D12026"/>
<path d="M21.875 28.125H7.8125C6.94969 28.125 6.25 27.4261 6.25 26.5625C6.25 25.6989 6.94969 25 7.8125 25H21.875C22.7378 25 23.4375 25.6989 23.4375 26.5625C23.4375 27.4261 22.7378 28.125 21.875 28.125Z" fill="#D12026"/>
</svg>
