<svg width="50" height="50" viewBox="0 0 50 50" fill="none" xmlns="http://www.w3.org/2000/svg">
<g clip-path="url(#clip0_46_623)">
<path d="M41.3364 24.9889C41.3364 35.4586 32.8488 43.946 22.3787 43.946C11.9087 43.946 3.42102 35.4586 3.42102 24.9889C3.42102 14.5191 11.9087 6.03186 22.3786 6.03186C32.8486 6.03186 41.3364 14.5193 41.3364 24.9889Z" fill="#91030E"/>
<path d="M23.4766 0.790525C35.9816 1.34834 46.0202 11.3867 46.578 23.8912C46.6048 24.4897 46.124 24.989 45.525 24.989H22.3786V1.84346C22.3786 1.24434 22.878 0.763767 23.4766 0.790525Z" fill="#D12026"/>
<path d="M45.9621 42.6373L36.868 33.52C36.0454 32.6974 34.7117 32.6974 33.8891 33.52L31.5126 31.1436C34.4233 26.842 33.9748 20.9457 30.1655 17.1365C25.8468 12.8179 18.8449 12.8179 14.5261 17.1365C10.2074 21.4551 10.2075 28.4567 14.5261 32.7753C18.3354 36.5845 24.2319 37.033 28.5337 34.1225L30.9102 36.499C30.0875 37.3215 30.0875 38.6552 30.9102 39.4778L40.0043 48.595C40.8269 49.4176 42.1606 49.4176 42.9832 48.595L45.9621 45.6162C46.7847 44.7935 46.7847 43.4599 45.9621 42.6373Z" fill="white"/>
<path d="M31.5125 31.1438L33.8891 33.5202L30.9102 36.4991L28.5336 34.1226C29.1089 33.7333 29.6559 33.2849 30.1654 32.7754C30.6749 32.266 31.1235 31.7191 31.5125 31.1438Z" fill="white"/>
<path d="M29.7183 24.9561C29.7183 29.0277 26.4175 32.3283 22.3458 32.3283C18.2741 32.3283 14.9733 29.0277 14.9733 24.9561C14.9733 20.8845 18.2741 17.5839 22.3458 17.5839C26.4175 17.5839 29.7183 20.8845 29.7183 24.9561Z" fill="#C3E4ED"/>
<path d="M26.7608 19.0516C27.9105 19.9126 28.7991 21.1018 29.2905 22.4797L19.8692 31.9007C18.4913 31.4093 17.302 30.5206 16.4411 29.3711L26.7608 19.0516ZM15.4009 27.4325C15.5243 27.7785 15.6724 28.1126 15.8439 28.4325L25.8223 18.4545C25.5023 18.2831 25.1683 18.1349 24.8223 18.0115L15.4009 27.4325Z" fill="#DCF3F9"/>
<path d="M29.7174 24.9889H23.4318C22.8502 24.9889 22.3787 24.5174 22.3787 23.9357V17.5846C24.2545 17.5929 26.1277 18.312 27.5589 19.7431C29.0067 21.191 29.7258 23.0913 29.7174 24.9889Z" fill="#FED766"/>
<path d="M22.3786 19.4434C23.542 19.4434 24.4851 20.3865 24.4851 21.5498C24.4851 22.7131 23.542 23.6561 22.3786 23.6561C21.2152 23.6561 20.2722 22.7131 20.2722 21.5498C20.2723 20.3864 21.2154 19.4434 22.3786 19.4434Z" fill="white"/>
<path d="M46.521 42.0798L39.4232 34.9639C41.0608 32.1714 41.9816 29.0224 42.1102 25.7785H45.5248C46.0257 25.7785 46.5116 25.5707 46.8581 25.2086C47.2085 24.8422 47.3891 24.3618 47.3666 23.856C47.0881 17.6107 44.4952 11.7319 40.0656 7.3025C35.6361 2.87328 29.7569 0.280402 23.5116 0.00188531C23.0024 -0.0204781 22.5253 0.159991 22.1589 0.510481C21.7967 0.856771 21.589 1.34271 21.589 1.84369V5.25816C11.0653 5.67388 2.63153 14.3651 2.63153 24.9889C2.63153 35.8771 11.4901 44.7355 22.3788 44.7355C25.8977 44.7355 29.3305 43.8043 32.3477 42.0367L39.4461 49.1531C40.0108 49.7178 40.7521 50 41.4938 50C42.2353 50 42.977 49.7177 43.5414 49.1531L46.5204 46.1743C47.0673 45.6274 47.3685 44.9002 47.3685 44.1267C47.3684 43.3532 47.0672 42.626 46.521 42.0798ZM38.2669 33.8049L37.4269 32.9627C37.4267 32.9625 37.4265 32.9623 37.4262 32.9621C36.8792 32.4151 36.1521 32.1138 35.3785 32.1138C34.8758 32.1138 34.3925 32.2411 33.9657 32.4803L32.5208 31.0355C33.4734 29.4476 34.0382 27.6559 34.1661 25.7785H40.53C40.4081 28.6022 39.6343 31.3454 38.2669 33.8049ZM32.7726 33.5202L30.9103 35.3825L29.7412 34.2134C30.081 33.9417 30.4091 33.6484 30.7237 33.3337C31.0371 33.0204 31.3309 32.6923 31.6042 32.3516L32.7726 33.5202ZM23.1682 1.84359C23.1682 1.74486 23.2197 1.6809 23.2505 1.6515C23.2804 1.62279 23.3429 1.57386 23.4414 1.57933C35.6377 2.12318 45.2454 11.7304 45.7893 23.9264C45.7935 24.0224 45.7459 24.0872 45.717 24.1173C45.6876 24.1481 45.6235 24.1995 45.5248 24.1995H34.1702C33.99 21.3196 32.782 18.6369 30.7235 16.5786C28.6226 14.4777 25.9223 13.3323 23.1681 13.1423L23.1682 1.84359ZM22.3458 14.6921C24.9754 14.6921 27.6052 15.6931 29.6071 17.695C31.5467 19.6345 32.6149 22.2132 32.6149 24.9561C32.6149 24.9584 32.6149 24.961 32.6149 24.9632C32.6146 24.9717 32.6145 24.9804 32.6145 24.9889C32.6145 24.9959 32.6146 25.0029 32.6148 25.01C32.6043 27.0508 32.0024 28.9988 30.8901 30.6579C30.8677 30.6864 30.8478 30.7162 30.8298 30.7468C30.4723 31.2682 30.0639 31.7605 29.6071 32.2171C29.1373 32.6869 28.6334 33.1012 28.1027 33.4607C28.0958 33.4653 28.0887 33.4701 28.0817 33.475C26.3549 34.6385 24.3507 35.2202 22.3457 35.22C19.7163 35.2198 17.086 34.2188 15.0843 32.217C13.1448 30.2776 12.0766 27.6989 12.0766 24.956C12.0766 22.2131 13.1447 19.6344 15.0843 17.6949H15.0844C17.0863 15.693 19.7161 14.6921 22.3458 14.6921ZM22.3788 43.1565C12.3608 43.1565 4.21054 35.0065 4.21054 24.9889C4.21054 15.236 11.9365 7.25338 21.5893 6.83824V13.1378C18.8121 13.3138 16.0858 14.4606 13.9681 16.5784C11.7302 18.8161 10.4978 21.7914 10.4978 24.956C10.4978 28.1206 11.7302 31.096 13.968 33.3336C17.8816 37.2471 23.8737 37.8454 28.4229 35.1281L29.8704 36.5755C29.6311 37.0023 29.5039 37.4854 29.5039 37.9882C29.5039 38.7616 29.8052 39.489 30.3515 40.0351L31.1922 40.8781C28.5047 42.3715 25.4781 43.1565 22.3788 43.1565ZM45.4039 45.0578L42.4249 48.0366C42.1762 48.2854 41.8455 48.4223 41.4937 48.4223C41.1419 48.4223 40.8113 48.2854 40.5631 48.0372L33.0384 40.4935C33.0307 40.4853 33.0228 40.4774 33.0147 40.4697L31.4684 38.9195C31.2197 38.6708 31.0827 38.3401 31.0827 37.9884C31.0827 37.6367 31.2197 37.3059 31.4684 37.0573L34.4474 34.0785C34.9607 33.5651 35.7961 33.5649 36.3096 34.0785L37.8558 35.6286C37.8633 35.6364 37.8709 35.644 37.8787 35.6515L45.4037 43.1956C45.6523 43.4443 45.7892 43.775 45.7892 44.1268C45.7894 44.4784 45.6525 44.8092 45.4039 45.0578ZM16.5745 30.7273C18.1655 32.3183 20.2557 33.1139 22.3458 33.1139C24.4358 33.1139 26.526 32.3183 28.1171 30.7273C29.6588 29.1857 30.5077 27.1362 30.5077 24.9561C30.5077 22.776 29.6588 20.7264 28.1171 19.1849C24.9349 16.0026 19.7566 16.0026 16.5746 19.1849C15.0328 20.7264 14.1839 22.776 14.1839 24.9562C14.1838 27.1362 15.0328 29.1857 16.5745 30.7273ZM17.6908 20.3015C18.9742 19.0181 20.6599 18.3764 22.3458 18.3764C24.0316 18.3764 25.7173 19.0181 27.0008 20.3015C28.2441 21.5447 28.9288 23.1978 28.9288 24.9561C28.9288 26.7144 28.244 28.3674 27.0008 29.6107C24.434 32.1772 20.2577 32.1773 17.691 29.6107C16.4476 28.3674 15.7629 26.7144 15.7629 24.9562C15.7628 23.1978 16.4475 21.5447 17.6908 20.3015Z" fill="#231F20"/>
</g>
<defs>
<clipPath id="clip0_46_623">
<rect width="50" height="50" fill="white"/>
</clipPath>
</defs>
</svg>
