<svg width="50" height="50" viewBox="0 0 50 50" fill="none" xmlns="http://www.w3.org/2000/svg">
<path d="M24.9219 27.3047L8.82812 35.8594V18.5547L24.9219 8.98438L40.7813 18.5547V35.8594L24.9219 27.3047Z" fill="#91030E"/>
<path d="M24.9219 8.98438L40.7813 18.5547V35.8594L24.9219 27.3047V8.98438Z" fill="#231F20"/>
<path d="M24.9219 8.98438L8.82812 18.5547V35.8594L24.9219 27.3047V8.98438Z" fill="#231F20"/>
<path d="M24.9219 27.1094L8.82812 18.5156V35.8594L24.9219 45.4297L40.7813 35.8594V18.5156L24.9219 27.1094Z" fill="#91030E"/>
<path d="M24.9219 27.1094L8.82812 18.5156V35.8594L24.9219 45.4297L40.7813 35.8594V18.5156L24.9219 27.1094Z" fill="white"/>
<path d="M24.9219 45.8203C24.8437 45.8203 24.7656 45.8203 24.7266 45.7812L8.63281 36.2109C8.51562 36.1328 8.4375 36.0156 8.4375 35.8594V18.5156C8.4375 18.3594 8.51562 18.2422 8.63281 18.1641C8.75 18.0859 8.90625 18.0859 9.02344 18.1641L24.9219 26.6406L40.5859 18.1641C40.7031 18.0859 40.8594 18.0859 40.9766 18.1641C41.0938 18.2422 41.1719 18.3594 41.1719 18.5156V35.8594C41.1719 36.0156 41.0938 36.1328 40.9766 36.2109L25.1172 45.7812C25.0781 45.7812 25 45.8203 24.9219 45.8203ZM9.21875 35.6641L24.9219 45L40.3906 35.6641V19.1797L25.1172 27.4609C25 27.5391 24.8438 27.5391 24.7656 27.4609L9.21875 19.1797V35.6641Z" fill="#91030E"/>
<path d="M24.9219 45.4297L40.7813 35.8594V18.5156L24.9219 27.1094V45.4297Z" fill="#231F20"/>
<path d="M24.9219 45.8203C24.8437 45.8203 24.8047 45.8203 24.7266 45.7812C24.6094 45.7031 24.5312 45.5859 24.5312 45.4297V27.1094C24.5312 26.9531 24.6094 26.8359 24.7266 26.7578L40.5859 18.1641C40.7031 18.0859 40.8594 18.0859 40.9766 18.1641C41.0938 18.2422 41.1719 18.3594 41.1719 18.5156V35.8594C41.1719 36.0156 41.0938 36.1328 40.9766 36.2109L25.1172 45.7812C25.0781 45.7812 25 45.8203 24.9219 45.8203ZM25.3125 27.3438V44.7266L40.3906 35.6641V19.1797L25.3125 27.3438Z" fill="#91030E"/>
<path d="M12.3437 29.7266L24.9219 36.8359V27.1094L8.82812 18.5156L12.3437 29.7266Z" fill="#231F20"/>
<path d="M1.5625 22.6953L8.82812 18.5156L24.9219 27.1094L17.1875 31.5234L1.5625 22.6953Z" fill="white"/>
<path d="M1.5625 14.375L8.82812 18.5547L24.9219 8.98438L17.2266 4.57031L1.5625 14.375Z" fill="white"/>
<path d="M8.82812 18.9453C8.75 18.9453 8.71094 18.9453 8.63281 18.9062L1.36719 14.6875C1.25 14.6484 1.17188 14.4922 1.17188 14.375C1.17188 14.2188 1.25 14.1016 1.36719 14.0234L17.0312 4.21875C17.1484 4.14063 17.3047 4.14063 17.4219 4.21875L25.1562 8.63281C25.2734 8.71094 25.3516 8.82812 25.3516 8.98438C25.3516 9.14062 25.2734 9.25781 25.1562 9.33594L9.02344 18.8672C8.98438 18.9062 8.90625 18.9453 8.82812 18.9453ZM2.30469 14.3359L8.82812 18.0859L24.1797 8.98438L17.2266 5.03906L2.30469 14.3359Z" fill="#91030E"/>
<path d="M32.1875 34.1016L40.7813 29.6875V18.5547L25.0391 27.0312L24.9219 27.1094L32.1875 34.1016Z" fill="#231F20"/>
<path d="M24.9219 27.1094L32.1875 31.2891L48.4375 22.9297L40.7813 18.5547L24.9219 27.1094Z" fill="white"/>
<path d="M17.1875 31.9141C17.1094 31.9141 17.0703 31.9141 16.9922 31.875L1.36719 23.0469C1.25 22.9688 1.17188 22.8516 1.17188 22.6953C1.17188 22.5391 1.25 22.4219 1.36719 22.3438L8.63281 18.1641C8.75 18.0859 8.90625 18.0859 9.02344 18.1641L25.1172 26.7578C25.2344 26.8359 25.3125 26.9531 25.3125 27.1094C25.3125 27.2656 25.2344 27.3828 25.1172 27.4609L17.3828 31.875C17.3438 31.9141 17.2656 31.9141 17.1875 31.9141ZM2.34375 22.6953L17.1875 31.0547L24.1016 27.1094L8.82812 18.9844L2.34375 22.6953Z" fill="#91030E"/>
<path d="M32.1875 31.6797C32.1094 31.6797 32.0703 31.6797 31.9922 31.6406L24.7266 27.4609C24.6094 27.3828 24.5312 27.2656 24.5312 27.1094C24.5312 26.9531 24.6094 26.8359 24.7266 26.7578L40.5859 18.1641C40.7031 18.0859 40.8594 18.0859 40.9766 18.1641L48.6328 22.5781C48.75 22.6562 48.8281 22.7734 48.8281 22.9297C48.8281 23.0859 48.75 23.2031 48.6328 23.2812L32.3828 31.6406C32.3047 31.6797 32.2656 31.6797 32.1875 31.6797ZM25.7422 27.1094L32.2266 30.8594L47.6562 22.9297L40.7812 18.9844L25.7422 27.1094Z" fill="#91030E"/>
<path d="M24.9219 8.98438L32.2266 4.80469L48.4375 14.1406L40.7813 18.5547L24.9219 8.98438Z" fill="white"/>
<path d="M40.7812 18.9453C40.7031 18.9453 40.625 18.9453 40.5859 18.9063L24.7266 9.33594C24.6094 9.25781 24.5312 9.14062 24.5312 8.98438C24.5312 8.82812 24.6094 8.71094 24.7266 8.63281L32.0313 4.49219C32.1484 4.41406 32.3047 4.41406 32.4219 4.49219L48.6328 13.8281C48.75 13.9062 48.8281 14.0234 48.8281 14.1797C48.8281 14.3359 48.75 14.4531 48.6328 14.5312L40.9766 18.9453C40.8984 18.9063 40.8203 18.9453 40.7812 18.9453ZM25.7031 8.98438L40.7812 18.0859L47.6562 14.1406L32.2266 5.27344L25.7031 8.98438Z" fill="#91030E"/>
<path d="M24.9219 5.85938L8.82812 14.4531V18.5547L24.9219 27.1094L40.7813 18.5547V14.4141L24.9219 5.85938Z" fill="#D12026"/>
<path d="M24.9219 27.5C24.8438 27.5 24.8047 27.5 24.7266 27.4609L8.67188 18.9062C8.55469 18.8281 8.47656 18.7109 8.47656 18.5547V14.4531C8.47656 14.2969 8.55469 14.1797 8.67188 14.1016L24.7656 5.50781C24.8828 5.42969 25.0391 5.42969 25.1172 5.50781L40.9375 14.0625C41.0547 14.1406 41.1328 14.2578 41.1328 14.4141V18.5547C41.1328 18.7109 41.0547 18.8281 40.9375 18.9062L25.0781 27.5H24.9219ZM9.21875 18.3203L24.9219 26.6406L40.3906 18.2812V14.6094L24.9219 6.32813L9.21875 14.6875V18.3203Z" fill="#91030E"/>
<path d="M24.9219 23.0078L8.82812 14.4531V18.5547L24.9219 27.1094V23.0078Z" fill="#231F20"/>
<path d="M24.9219 23.0078L40.7813 14.4141V18.5547L24.9219 27.1094V23.0078Z" fill="#231F20"/>
</svg>
