<svg width="50" height="50" viewBox="0 0 50 50" fill="none" xmlns="http://www.w3.org/2000/svg">
<g clip-path="url(#clip0_46_618)">
<path d="M24.9381 13.774C24.2154 14.1239 23.4994 14.6088 22.8352 15.2737C19.506 18.6036 16.4797 21.63 16.4797 21.63L16.4809 21.6319C16.4629 21.6501 16.4447 21.665 16.4265 21.6837C15.5648 22.5461 15.5306 23.9209 16.3264 24.823C16.358 24.8592 16.3917 24.8948 16.4265 24.929C17.3212 25.8249 18.7738 25.8271 19.6719 24.929L23.1677 21.4332C23.7708 21.6542 24.3638 21.7831 24.9327 21.8476C25.7078 21.9335 26.4358 21.9013 27.0833 21.81C28.6616 21.5863 28.4964 21.6515 29.4118 21.3506C30.3252 21.051 31.3514 20.4371 31.3514 20.4371L31.9727 21.0577C32.0412 21.1242 33.625 22.7106 34.4329 23.5172C34.576 23.6609 34.6974 23.7791 34.7788 23.8638C34.8722 23.9611 34.9763 24.0317 35.0407 24.1257L39.0718 28.1568C40.2337 26.8531 41.5608 24.9115 41.397 22.6824L31.3245 12.6113C31.3245 12.6113 27.8381 12.3622 24.9381 13.774Z" fill="white"/>
<path d="M25.4995 38.5119C24.6075 37.6187 23.1596 37.6187 22.267 38.5119L21.6035 39.1754C22.494 38.2836 22.4933 36.8389 21.6015 35.9463C20.7089 35.0551 19.2629 35.0551 18.3703 35.947C19.2629 35.0551 19.2629 33.6091 18.3703 32.7158C17.4784 31.8225 16.0317 31.8239 15.1391 32.7158C16.0317 31.8239 16.0317 30.3773 15.1391 29.4839C14.2472 28.5921 12.8006 28.5921 11.9079 29.4853L9.90985 31.4826C9.01727 32.3759 9.01727 33.8212 9.90985 34.7145C10.8017 35.6065 12.2478 35.6065 13.1403 34.7145C12.2477 35.6065 12.2477 37.053 13.1403 37.9456C14.0336 38.8375 15.4796 38.8375 16.3722 37.9456C15.4796 38.8375 15.4796 40.2836 16.3722 41.1769C17.2647 42.0688 18.7107 42.0688 19.6034 41.1769L20.2677 40.5119C19.3771 41.4052 19.3777 42.8498 20.2696 43.7425C21.1622 44.6343 22.6082 44.6343 23.5009 43.7425L25.4996 41.7437C26.3914 40.8498 26.3914 39.4038 25.4995 38.5119Z" fill="white"/>
<path d="M49.6081 17.4102L37.846 5.64669C37.3234 5.1255 36.4786 5.1255 35.9574 5.64669L32.1848 9.41915C31.6636 9.94034 31.6636 10.7853 32.1848 11.3071L43.9483 23.0699C44.4688 23.5924 45.3151 23.5924 45.8356 23.0699L49.6081 19.2967C50.1306 18.777 50.1306 17.932 49.6081 17.4102ZM46.2553 20.0188C45.6938 20.5789 44.7858 20.5789 44.2263 20.0188C43.6663 19.4579 43.6663 18.5499 44.2263 17.9898C44.7858 17.4296 45.6938 17.4296 46.2553 17.9898C46.8155 18.5499 46.8148 19.4579 46.2553 20.0188Z" fill="white"/>
<path d="M17.8141 9.75234L14.0423 5.97988C13.5212 5.45869 12.6756 5.45869 12.1544 5.97988L0.390894 17.7433C-0.130298 18.2631 -0.130298 19.1094 0.390894 19.6299L4.16345 23.4037C4.68396 23.9243 5.53083 23.9243 6.05066 23.4037L17.8141 11.6402C18.336 11.119 18.336 10.2741 17.8141 9.75234ZM5.77322 20.3519C5.21306 20.9113 4.30447 20.9113 3.74421 20.3519C3.18416 19.7911 3.18416 18.883 3.74421 18.3229C4.30437 17.7628 5.21306 17.7628 5.77322 18.3229C6.33337 18.883 6.33337 19.791 5.77322 20.3519Z" fill="white"/>
<path d="M38.8211 30.5478L38.0918 29.8171L31.0108 22.7361L30.534 22.9477L30.0148 23.1351L29.9773 23.1465C29.8859 23.1754 29.0316 23.4366 27.3473 23.675C26.4566 23.7993 25.5742 23.8147 24.7199 23.7174C24.3821 23.6798 24.0463 23.6246 23.7145 23.5522L21.0038 26.2615C19.3751 27.8902 16.723 27.8902 15.0942 26.2615C15.0371 26.2038 14.982 26.1453 14.9311 26.0876L14.9136 26.0681C13.8854 24.9022 13.6241 23.3064 14.1077 21.9215L15.15 20.2995L15.148 20.2976L21.5036 13.9427C21.7621 13.6848 22.0335 13.4443 22.3155 13.2173C20.335 12.8284 18.6733 12.9433 18.6733 12.9433L8.60284 23.0155C8.46719 24.8698 9.74063 26.9022 10.6466 28.089C12.2767 26.5301 14.8691 26.5503 16.4709 28.1528C17.0673 28.7485 17.4428 29.4826 17.6012 30.2522C18.3722 30.4121 19.1057 30.7869 19.7021 31.3833C20.2984 31.9804 20.6739 32.7145 20.8324 33.4848C21.6027 33.6433 22.3375 34.018 22.9333 34.6145C23.3315 35.0127 23.6317 35.4722 23.8339 35.9638C24.9179 35.9504 26.006 36.356 26.8308 37.1801C28.4567 38.8047 28.4561 41.4509 26.8308 43.0749L26.1658 43.7411L26.4989 44.0743C27.3923 44.9676 28.8382 44.9676 29.7309 44.0743C30.6234 43.1823 30.6234 41.7357 29.7309 40.8431L30.3957 41.5101C31.289 42.402 32.7343 42.402 33.6269 41.5101C34.5194 40.6168 34.5201 39.1708 33.6269 38.2775C34.5201 39.1708 35.9654 39.1708 36.858 38.2775C37.75 37.3863 37.752 35.9396 36.858 35.0463C37.752 35.9396 39.1973 35.9396 40.0893 35.0463C40.9825 34.1545 40.9825 32.7077 40.0893 31.8158L38.8211 30.5478Z" fill="white"/>
</g>
<defs>
<clipPath id="clip0_46_618">
<rect width="50" height="50" fill="white"/>
</clipPath>
</defs>
</svg>
