<svg width="50" height="50" viewBox="0 0 50 50" fill="none" xmlns="http://www.w3.org/2000/svg">
<path d="M8 3C7.44922 3 7 3.44922 7 4V30C7 30.5547 7.44922 31 8 31H13C13.5547 31 14 30.5547 14 30V4C14 3.44922 13.5547 3 13 3H8ZM17 3C16.4492 3 16 3.44922 16 4V30C16 30.5547 16.4492 31 17 31H22C22.5547 31 23 30.5547 23 30V4C23 3.44922 22.5547 3 22 3H17ZM9.5 7H11.5C12.0547 7 12.5 7.44922 12.5 8C12.5 8.55078 12.0547 9 11.5 9H9.5C8.94531 9 8.5 8.55078 8.5 8C8.5 7.44922 8.94531 7 9.5 7ZM18.5 7H20.5C21.0547 7 21.5 7.44922 21.5 8C21.5 8.55078 21.0547 9 20.5 9H18.5C17.9453 9 17.5 8.55078 17.5 8C17.5 7.44922 17.9453 7 18.5 7ZM37.5938 8.4375L32.75 9.59375C32.4922 9.65625 32.2656 9.80469 32.125 10.0312C32.0664 10.125 32.0234 10.2383 32 10.3438V10C32 9.44922 31.5547 9 31 9H26C25.4492 9 25 9.44922 25 10V30C25 30.5547 25.4492 31 26 31H31C31.5547 31 32 30.5547 32 30V10.7812L36.8125 30.25C36.9219 30.7109 37.3281 31.0312 37.7812 31.0312C37.8555 31.0312 37.9219 31.0156 38 31L42.875 29.8438C43.1328 29.7812 43.3594 29.6328 43.5 29.4062C43.6406 29.1797 43.6875 28.9141 43.625 28.6562L38.8125 9.1875C38.6836 8.64844 38.1289 8.30859 37.5938 8.4375ZM36.9688 12.7812C37.3516 12.8477 37.6875 13.1289 37.7812 13.5312C37.9062 14.0703 37.5664 14.625 37.0312 14.75L36.0625 14.9688C35.9844 14.9883 35.918 15 35.8438 15C35.3906 15 34.9531 14.6797 34.8438 14.2188C34.7188 13.6797 35.0586 13.1562 35.5938 13.0312L36.5625 12.8125C36.6953 12.7812 36.8398 12.7578 36.9688 12.7812ZM28 13H29C29.5547 13 30 13.4492 30 14C30 14.5508 29.5547 15 29 15H28C27.4453 15 27 14.5508 27 14C27 13.4492 27.4453 13 28 13ZM39.5312 24.4688C40.0664 24.3477 40.6211 24.6797 40.75 25.2188C40.875 25.7539 40.5391 26.2812 40 26.4062L39.0312 26.6562C38.9531 26.6758 38.8555 26.6875 38.7812 26.6875C38.3281 26.6875 37.9219 26.3672 37.8125 25.9062C37.6875 25.3711 38.0234 24.8125 38.5625 24.6875L39.5312 24.4688ZM9.5 25H11.5C12.0547 25 12.5 25.4492 12.5 26C12.5 26.5508 12.0547 27 11.5 27H9.5C8.94531 27 8.5 26.5508 8.5 26C8.5 25.4492 8.94531 25 9.5 25ZM18.5 25H20.5C21.0547 25 21.5 25.4492 21.5 26C21.5 26.5508 21.0547 27 20.5 27H18.5C17.9453 27 17.5 26.5508 17.5 26C17.5 25.4492 17.9453 25 18.5 25ZM28 25H29C29.5547 25 30 25.4453 30 26C30 26.5547 29.5547 27 29 27H28C27.4453 27 27 26.5547 27 26C27 25.4453 27.4453 25 28 25ZM3 32C2.44922 32 2 32.4453 2 33V36C2 36.5547 2.44922 37 3 37H47C47.5547 37 48 36.5547 48 36V33C48 32.4453 47.5547 32 47 32H3ZM6 39V44.5C6 45.8789 7.12109 47 8.5 47C9.87891 47 11 45.8789 11 44.5V39H6ZM39 39V44.5C39 45.8789 40.1211 47 41.5 47C42.8789 47 44 45.8789 44 44.5V39H39Z" fill="#231F20"/>
</svg>
